<svg width="31" height="17" viewBox="0 0 31 17" fill="none" xmlns="http://www.w3.org/2000/svg">
<path fill-rule="evenodd" clip-rule="evenodd" d="M0 3.5C0 1.84315 1.34315 0.5 3 0.5L28 0.5C29.6569 0.5 31 1.84315 31 3.5V10.5C31 12.1569 29.6569 13.5 28 13.5H3V16.5L1.17157 14.6716C0.421428 13.9214 0 12.904 0 11.8431L0 3.5Z" fill="#0CBF82"/>
<mask id="mask0_214_7010" style="mask-type:luminance" maskUnits="userSpaceOnUse" x="0" y="0" width="31" height="17">
<path fill-rule="evenodd" clip-rule="evenodd" d="M0 3.5C0 1.84315 1.34315 0.5 3 0.5L28 0.5C29.6569 0.5 31 1.84315 31 3.5V10.5C31 12.1569 29.6569 13.5 28 13.5H3V16.5L1.17157 14.6716C0.421428 13.9214 0 12.904 0 11.8431L0 3.5Z" fill="white"/>
</mask>
<g mask="url(#mask0_214_7010)">
<path fill-rule="evenodd" clip-rule="evenodd" d="M1.19498 14.695C0.754 14.254 1.06632 13.5 1.68995 13.5H3V16.5L1.19498 14.695Z" fill="#00A86F"/>
</g>
<g clip-path="url(#clip0_214_7010)">
<path d="M8.822 5.68V3.295H9.686V6.508H6.941V9.613H9.272V7.228H10.127V10.864H9.272V10.432H2.873V7.228H3.728V9.613H6.059V6.508H3.314V3.295H4.178V5.68H6.059V2.611H6.941V5.68H8.822ZM16.508 2.611H17.372V4.123H19.559V4.951H17.372V6.517H19.19V10.873H18.362V10.324H16.022V10.882H15.203V6.517H16.508V2.611ZM16.022 9.532H18.362V7.264H16.022V9.532ZM11.477 4.042H12.845C12.737 3.592 12.611 3.187 12.485 2.818L13.349 2.683C13.457 3.079 13.556 3.538 13.664 4.042H15.068V4.87H11.477V4.042ZM12.422 5.275C12.629 6.31 12.818 7.498 12.989 8.83L12.278 9.001C12.116 7.795 11.918 6.634 11.675 5.518L12.422 5.275ZM14.897 8.803V9.64C13.88 9.919 12.791 10.153 11.621 10.342L11.423 9.523C12.071 9.442 12.701 9.334 13.322 9.199C13.592 7.957 13.781 6.634 13.898 5.239L14.726 5.356C14.591 6.679 14.384 7.903 14.114 9.019C14.384 8.947 14.645 8.875 14.897 8.803ZM23.591 3.925H25.121V2.638H25.949V3.925H27.866V6.625H28.478V7.462H26.21C26.75 8.587 27.578 9.505 28.712 10.207L28.136 10.882C27.002 10.072 26.147 9.064 25.589 7.867C25.166 9.217 24.383 10.216 23.231 10.882L22.709 10.18C23.789 9.613 24.509 8.704 24.869 7.462H23.231V6.625H25.04C25.094 6.247 25.121 5.851 25.121 5.437V4.726H23.591V3.925ZM25.949 4.726V5.248C25.949 5.734 25.913 6.193 25.859 6.625H27.038V4.726H25.949ZM20.603 4.384L21.26 4.429C21.242 5.329 21.143 6.193 20.972 7.003L20.279 6.805C20.468 6.04 20.576 5.23 20.603 4.384ZM23.033 4.159C23.276 4.735 23.492 5.401 23.681 6.148L22.988 6.319C22.844 5.644 22.646 4.996 22.403 4.366L23.033 4.159ZM21.548 2.647H22.385V10.891H21.548V2.647Z" fill="white"/>
</g>
<defs>
<clipPath id="clip0_214_7010">
<rect width="27" height="13" fill="white" transform="translate(2)"/>
</clipPath>
</defs>
</svg>
