<svg width="12" height="12" viewBox="0 0 12 12" fill="none" xmlns="http://www.w3.org/2000/svg">
<path opacity="0.01" d="M0 0H12V12H0V0Z" fill="#CDD2DA"/>
<path d="M9.84186 1.61334C9.99249 1.46271 10.2361 1.46271 10.3868 1.61334C10.5374 1.76397 10.5374 2.00765 10.3868 2.15826L6.54498 6.00006L10.3868 9.84186C10.5374 9.99249 10.5374 10.2362 10.3868 10.3868C10.2362 10.5374 9.99249 10.5374 9.84186 10.3868L6.00006 6.54498L2.15826 10.3868C2.00765 10.5374 1.76397 10.5374 1.61334 10.3868C1.46271 10.2361 1.46271 9.99249 1.61334 9.84186L5.45514 6.00006L1.61334 2.15826C1.46271 2.00763 1.46271 1.76397 1.61334 1.61334C1.76397 1.46271 2.00763 1.46271 2.15826 1.61334L6.00006 5.45514L9.84186 1.61334Z" fill="#F51A0B"/>
<path d="M10.3868 1.61334L10.5989 1.40124L10.5989 1.40121L10.3868 1.61334ZM10.3868 2.15826L10.5989 2.37039L10.3868 2.15826ZM6.54498 6.00006L6.33285 5.78793L6.12072 6.00006L6.33285 6.21219L6.54498 6.00006ZM10.3868 9.84186L10.5989 9.62974L10.5989 9.62972L10.3868 9.84186ZM10.3868 10.3868L10.5989 10.5989L10.3868 10.3868ZM9.84186 10.3868L9.62972 10.5989L9.62974 10.5989L9.84186 10.3868ZM6.00006 6.54498L6.21219 6.33285L6.00006 6.12072L5.78793 6.33285L6.00006 6.54498ZM1.61334 10.3868L1.40121 10.5989L1.40124 10.5989L1.61334 10.3868ZM5.45514 6.00006L5.66727 6.21219L5.8794 6.00006L5.66727 5.78793L5.45514 6.00006ZM1.61334 1.61334L1.40121 1.40121L1.61334 1.61334ZM6.00006 5.45514L5.78793 5.66727L6.00006 5.8794L6.21219 5.66727L6.00006 5.45514ZM9.84186 1.61334L10.054 1.82547C10.0875 1.792 10.1412 1.792 10.1746 1.82547L10.3868 1.61334L10.5989 1.40121C10.3311 1.13342 9.89751 1.13342 9.62972 1.40121L9.84186 1.61334ZM10.3868 1.61334L10.1746 1.82544C10.2081 1.85896 10.2081 1.91271 10.1746 1.94613L10.3868 2.15826L10.5989 2.37039C10.8667 2.10259 10.8666 1.66899 10.5989 1.40124L10.3868 1.61334ZM10.3868 2.15826L10.1746 1.94613L6.33285 5.78793L6.54498 6.00006L6.75711 6.21219L10.5989 2.37039L10.3868 2.15826ZM6.54498 6.00006L6.33285 6.21219L10.1746 10.054L10.3868 9.84186L10.5989 9.62972L6.75711 5.78793L6.54498 6.00006ZM10.3868 9.84186L10.1746 10.054C10.2081 10.0875 10.2081 10.1412 10.1746 10.1746L10.3868 10.3868L10.5989 10.5989C10.8667 10.3311 10.8667 9.89751 10.5989 9.62974L10.3868 9.84186ZM10.3868 10.3868L10.1746 10.1746C10.1412 10.2081 10.0875 10.2081 10.054 10.1746L9.84186 10.3868L9.62974 10.5989C9.89751 10.8667 10.3311 10.8667 10.5989 10.5989L10.3868 10.3868ZM9.84186 10.3868L10.054 10.1746L6.21219 6.33285L6.00006 6.54498L5.78793 6.75711L9.62972 10.5989L9.84186 10.3868ZM6.00006 6.54498L5.78793 6.33285L1.94613 10.1746L2.15826 10.3868L2.37039 10.5989L6.21219 6.75711L6.00006 6.54498ZM2.15826 10.3868L1.94613 10.1746C1.91271 10.2081 1.85896 10.2081 1.82544 10.1746L1.61334 10.3868L1.40124 10.5989C1.66899 10.8666 2.10259 10.8667 2.37039 10.5989L2.15826 10.3868ZM1.61334 10.3868L1.82547 10.1746C1.792 10.1412 1.792 10.0875 1.82547 10.054L1.61334 9.84186L1.40121 9.62972C1.13342 9.89751 1.13342 10.3311 1.40121 10.5989L1.61334 10.3868ZM1.61334 9.84186L1.82547 10.054L5.66727 6.21219L5.45514 6.00006L5.243 5.78793L1.40121 9.62972L1.61334 9.84186ZM5.45514 6.00006L5.66727 5.78793L1.82547 1.94613L1.61334 2.15826L1.40121 2.37039L5.243 6.21219L5.45514 6.00006ZM1.61334 2.15826L1.82547 1.94613C1.792 1.91266 1.792 1.85894 1.82547 1.82547L1.61334 1.61334L1.40121 1.40121C1.13342 1.669 1.13342 2.10261 1.40121 2.37039L1.61334 2.15826ZM1.61334 1.61334L1.82547 1.82547C1.85894 1.792 1.91266 1.792 1.94613 1.82547L2.15826 1.61334L2.37039 1.40121C2.10261 1.13342 1.669 1.13342 1.40121 1.40121L1.61334 1.61334ZM2.15826 1.61334L1.94613 1.82547L5.78793 5.66727L6.00006 5.45514L6.21219 5.243L2.37039 1.40121L2.15826 1.61334ZM6.00006 5.45514L6.21219 5.66727L10.054 1.82547L9.84186 1.61334L9.62972 1.40121L5.78793 5.243L6.00006 5.45514Z" fill="#F51A08"/>
</svg>
