<svg width="18" height="18" viewBox="0 0 18 18" fill="none" xmlns="http://www.w3.org/2000/svg">
<rect x="0.00317383" width="17.9969" height="17.9969" fill="black" fill-opacity="0.01"/>
<path fill-rule="evenodd" clip-rule="evenodd" d="M14.4278 11.0813L14.4288 7.72201C14.4294 4.75235 12.0809 2.3363 9.15413 2.25338L8.99956 2.25118C6.00136 2.25065 3.56891 4.69835 3.56838 7.72011L3.56778 11.1534C3.56773 11.4418 3.35057 11.6795 3.07088 11.712L3.00528 11.7157L2.07008 11.7156C1.08173 11.7154 0.28064 10.914 0.280813 9.92568L0.28112 8.16537C0.281292 7.17702 1.08266 6.37594 2.07101 6.37612L2.58006 6.37598C3.19745 3.37894 5.83665 1.12582 8.99975 1.12637C12.1629 1.12692 14.8013 3.38096 15.4176 6.37822L15.9263 6.37853C16.9147 6.37871 17.7158 7.18006 17.7156 8.16841L17.7153 9.92873C17.7151 10.9171 16.9137 11.7182 15.9254 11.718L15.4157 11.718C14.9713 13.1495 14.2073 14.2701 13.1252 15.0621C12.5822 15.4596 11.994 15.7638 11.3624 15.9738C11.2478 16.7039 10.6036 17.3463 9.74567 17.5775C8.65007 17.8726 7.52164 17.4117 7.26502 16.4476C7.00889 15.4851 7.7556 14.5208 8.8501 14.2259C9.74222 13.9855 10.6561 14.2465 11.1033 14.8723C11.5878 14.7021 12.0397 14.4627 12.4608 14.1545C13.4237 13.4497 14.0834 12.4163 14.4418 11.0315L14.4278 11.0813ZM9.14271 15.3119C8.59211 15.4603 8.27516 15.8696 8.35198 16.1583C8.4284 16.4454 8.90353 16.6394 9.45306 16.4914C10.0036 16.343 10.3206 15.9337 10.2438 15.6451C10.1673 15.358 9.69222 15.1639 9.14271 15.3119ZM11.7034 10.7031C11.9592 10.5268 12.0236 10.1766 11.8474 9.92087C11.6711 9.66512 11.3209 9.60068 11.0651 9.77693C10.4469 10.203 9.75312 10.4146 8.9685 10.4145C8.18388 10.4143 7.49016 10.2025 6.87208 9.7762C6.6164 9.59986 6.26617 9.66418 6.08981 9.91986C5.91347 10.1756 5.97779 10.5258 6.23347 10.7021C7.04111 11.2592 7.95779 11.5391 8.9683 11.5393C9.97882 11.5394 10.8956 11.2598 11.7034 10.7031ZM15.9261 7.50334L15.5501 7.50333C15.5525 7.576 15.5537 7.64897 15.5536 7.72221L15.5527 10.5927L15.9256 10.5932C16.2698 10.5933 16.5529 10.3317 16.587 9.99649L16.5905 9.92853L16.5908 8.16821C16.5908 7.80109 16.2933 7.5034 15.9261 7.50334ZM2.07082 7.50092L2.44715 7.50104C2.44478 7.57371 2.44359 7.64668 2.44358 7.71992L2.44257 10.5905L2.07028 10.5908C1.70313 10.5907 1.40555 10.293 1.40562 9.92588L1.40592 8.16556C1.40599 7.79844 1.70367 7.50086 2.07082 7.50092Z" fill="#111111"/>
</svg>
