<svg width="35" height="38" viewBox="0 0 35 38" fill="none" xmlns="http://www.w3.org/2000/svg">
<g filter="url(#filter0_d_214_7083)">
<g filter="url(#filter1_ii_214_7083)">
<path d="M17.3908 4C15.0603 4 12.5007 4.35301 9.70584 5.04989C7.52921 5.59263 6 7.56377 6 9.82667L6 19.0425C6 23.8155 11.9982 29.0708 17.4926 29.0708C22.9877 29.0708 29 23.8149 29 19.0425V9.84298C29 7.56611 27.4522 5.58664 25.2581 5.05737C22.3489 4.35562 19.7297 4 17.3908 4Z" fill="url(#paint0_linear_214_7083)"/>
</g>
<mask id="mask0_214_7083" style="mask-type:luminance" maskUnits="userSpaceOnUse" x="6" y="4" width="23" height="26">
<path d="M17.3908 4C15.0603 4 12.5007 4.35301 9.70584 5.04989C7.52921 5.59263 6 7.56377 6 9.82667L6 19.0425C6 23.8155 11.9982 29.0708 17.4926 29.0708C22.9877 29.0708 29 23.8149 29 19.0425V9.84298C29 7.56611 27.4522 5.58664 25.2581 5.05737C22.3489 4.35562 19.7297 4 17.3908 4Z" fill="white"/>
</mask>
<g mask="url(#mask0_214_7083)">
<g opacity="0.24" filter="url(#filter2_f_214_7083)">
<path d="M8.70422 0.0109863L18.4623 9.85973L10.6558 17.7387L0.897765 7.88999L8.70422 0.0109863Z" fill="white"/>
</g>
</g>
<path fill-rule="evenodd" clip-rule="evenodd" d="M17.3908 6.78564C19.4965 6.78564 21.9051 7.11267 24.6166 7.76671C25.5685 7.99634 26.24 8.85514 26.24 9.84297V19.0425C26.24 21.9783 21.7757 26.2852 17.4926 26.2852C15.7891 26.2852 14.0593 25.6039 12.5935 24.5985L12.3449 24.4231C10.2545 22.9059 8.76001 20.7439 8.76001 19.0425V9.82666C8.76001 8.84489 9.42347 7.9897 10.3678 7.75423C12.9575 7.10851 15.2985 6.78564 17.3908 6.78564Z" fill="url(#paint1_linear_214_7083)"/>
<g opacity="0.28">
<path fill-rule="evenodd" clip-rule="evenodd" d="M17.5 6.78564C19.9588 6.78564 22.9219 7.38015 24.6896 7.79482C25.6113 8.01105 26.24 8.84117 26.24 9.78795V19.0425C26.24 21.9783 21.7831 26.2852 17.5 26.2852V6.78564Z" fill="url(#paint2_linear_214_7083)" style="mix-blend-mode:overlay"/>
</g>
<path opacity="0.96" d="M19.6136 12.0226C18.7082 12.0226 17.9167 12.5534 17.503 13.331C17.0953 12.5534 16.2978 12.0226 15.3864 12.0226C14.0673 12.0226 13 13.1273 13 14.4912C13 15.1391 13.2398 15.7254 13.6356 16.1697C14.0313 16.6141 17.2991 19.9589 17.2991 19.9589C17.3591 20.0145 17.431 20.0453 17.503 20.0453C17.5749 20.0453 17.6469 20.0145 17.7069 19.9589C17.7069 19.9589 20.9807 16.6079 21.3704 16.1697C21.7602 15.7316 22 15.1391 22 14.4912C22 13.1273 20.9327 12.0226 19.6136 12.0226Z" fill="white"/>
</g>
<defs>
<filter id="filter0_d_214_7083" x="0" y="0" width="35" height="37.0708" filterUnits="userSpaceOnUse" color-interpolation-filters="sRGB">
<feFlood flood-opacity="0" result="BackgroundImageFix"/>
<feColorMatrix in="SourceAlpha" type="matrix" values="0 0 0 0 0 0 0 0 0 0 0 0 0 0 0 0 0 0 127 0" result="hardAlpha"/>
<feOffset dy="2"/>
<feGaussianBlur stdDeviation="3"/>
<feColorMatrix type="matrix" values="0 0 0 0 0.493433 0 0 0 0 0.237767 0 0 0 0 0 0 0 0 0.12 0"/>
<feBlend mode="normal" in2="BackgroundImageFix" result="effect1_dropShadow_214_7083"/>
<feBlend mode="normal" in="SourceGraphic" in2="effect1_dropShadow_214_7083" result="shape"/>
</filter>
<filter id="filter1_ii_214_7083" x="5" y="3" width="25" height="27.0708" filterUnits="userSpaceOnUse" color-interpolation-filters="sRGB">
<feFlood flood-opacity="0" result="BackgroundImageFix"/>
<feBlend mode="normal" in="SourceGraphic" in2="BackgroundImageFix" result="shape"/>
<feColorMatrix in="SourceAlpha" type="matrix" values="0 0 0 0 0 0 0 0 0 0 0 0 0 0 0 0 0 0 127 0" result="hardAlpha"/>
<feOffset dx="-1" dy="1"/>
<feGaussianBlur stdDeviation="1"/>
<feComposite in2="hardAlpha" operator="arithmetic" k2="-1" k3="1"/>
<feColorMatrix type="matrix" values="0 0 0 0 0.719118 0 0 0 0 0.332726 0 0 0 0 0 0 0 0 0.06 0"/>
<feBlend mode="normal" in2="shape" result="effect1_innerShadow_214_7083"/>
<feColorMatrix in="SourceAlpha" type="matrix" values="0 0 0 0 0 0 0 0 0 0 0 0 0 0 0 0 0 0 127 0" result="hardAlpha"/>
<feOffset dx="1" dy="-1"/>
<feGaussianBlur stdDeviation="1"/>
<feComposite in2="hardAlpha" operator="arithmetic" k2="-1" k3="1"/>
<feColorMatrix type="matrix" values="0 0 0 0 1 0 0 0 0 1 0 0 0 0 1 0 0 0 0.16 0"/>
<feBlend mode="normal" in2="effect1_innerShadow_214_7083" result="effect2_innerShadow_214_7083"/>
</filter>
<filter id="filter2_f_214_7083" x="-5.898" y="-6.78472" width="31.156" height="31.3191" filterUnits="userSpaceOnUse" color-interpolation-filters="sRGB">
<feFlood flood-opacity="0" result="BackgroundImageFix"/>
<feBlend mode="normal" in="SourceGraphic" in2="BackgroundImageFix" result="shape"/>
<feGaussianBlur stdDeviation="3.39785" result="effect1_foregroundBlur_214_7083"/>
</filter>
<linearGradient id="paint0_linear_214_7083" x1="6.07477" y1="4" x2="6.07477" y2="28.9078" gradientUnits="userSpaceOnUse">
<stop stop-color="#F5D868"/>
<stop offset="1" stop-color="#F2BD24"/>
</linearGradient>
<linearGradient id="paint1_linear_214_7083" x1="8.76001" y1="6.64997" x2="8.45733" y2="26.1486" gradientUnits="userSpaceOnUse">
<stop offset="0.00467111" stop-color="#F4B238"/>
<stop offset="0.993635" stop-color="#F36E0A"/>
</linearGradient>
<linearGradient id="paint2_linear_214_7083" x1="17.5" y1="6.78564" x2="17.5" y2="26.2852" gradientUnits="userSpaceOnUse">
<stop stop-color="white"/>
<stop offset="1" stop-color="white" stop-opacity="0.01"/>
</linearGradient>
</defs>
</svg>
