<svg width="32" height="32" viewBox="0 0 32 32" fill="none" xmlns="http://www.w3.org/2000/svg">
<path d="M16 0C24.8365 0 32 7.16351 32 16C32 24.8365 24.8365 32 16 32C7.1635 32 0 24.8365 0 16C1.64932e-05 7.16351 7.16351 0 16 0ZM19.8232 7.75195C19.573 7.46124 19.0727 7.41296 18.7725 7.65527L9.96582 14.877C9.3153 15.4998 9.31533 16.6139 10.166 17.252L18.7725 24.3291C19.0727 24.5713 19.5731 24.5707 19.8232 24.2314C20.0732 23.9407 20.0736 23.4562 19.7236 23.2139L11.1162 16.1855C11.001 16.0794 10.9989 15.9469 11.082 15.8721L19.7236 8.76953C20.0235 8.52705 20.0733 8.04262 19.8232 7.75195Z" fill="black" fill-opacity="0.4"/>
</svg>
