<svg width="22" height="20" viewBox="0 0 22 20" fill="none" xmlns="http://www.w3.org/2000/svg">
<path d="M19.5 5.49999V0H2.49999V5.49999C1.05 5.94999 0 7.29999 0 8.84999V18.75H2.49999V19.85H4.5V18.75H17.5V19.85H19.5V18.75H22V17.75V8.84999C22 7.29999 20.95 5.94999 19.5 5.49999ZM17.5 1.99999V5.49999C16.05 5.94999 15 7.29999 15 8.84999V12H7.05V8.84999C7.05 7.24999 5.99999 5.9 4.55 5.49999V1.99999H17.5ZM1.99999 8.84999C1.99999 8.44999 2.15001 8.05 2.44999 7.79999C2.75001 7.5 3.09999 7.34998 3.5 7.34998C3.90001 7.34998 4.29999 7.5 4.55 7.79999C4.84999 8.1 5.00001 8.44999 5.00001 8.84999V14H16.9V8.84999C16.9 8.44999 17.05 8.05 17.35 7.79999C17.65 7.5 18 7.34998 18.4 7.34998C18.8 7.34998 19.2 7.5 19.45 7.79999C19.75 8.1 19.9 8.44999 19.9 8.84999V16.75H1.99999V8.84999Z" fill="#666666"/>
</svg>
