<svg width="30" height="30" viewBox="0 0 30 30" fill="none" xmlns="http://www.w3.org/2000/svg">
<path d="M28.9307 15.2471C29.2766 15.5643 29.9997 15.5679 30 14.6875C30 13.7881 29.9126 12.9087 29.7549 12.0537L29.5957 11.3047C28.0378 4.82479 22.11 0 15.0293 0C8.31586 4.76837e-05 2.63514 4.33643 0.736328 10.3096L0.498047 11.1543L1.58691 11.4229C3.07741 5.49758 8.52729 1.10161 15.0293 1.10156C21.4921 1.10156 26.9212 5.44391 28.4502 11.3154C28.553 11.6921 28.6377 12.0569 28.7031 12.4092C28.7685 12.7614 28.8144 13.165 28.8408 13.6191L27.0947 12.0684C26.8946 11.8911 26.5904 11.9027 26.4043 12.0947L26.332 12.166C26.1436 12.3677 26.1542 12.6842 26.3555 12.873C27.4612 13.8955 28.3201 14.6867 28.9307 15.2471ZM20.4561 17.6885C21.3305 17.6884 22.3887 17.0405 22.3887 16.1416C22.3886 15.6354 22.189 15.1021 21.8301 14.8076C21.8109 14.7947 21.4369 14.4963 20.7197 13.9141H16.8633C16.6332 13.9141 16.4396 13.7212 16.4395 13.4912V12.4443C16.4397 12.2144 16.6333 12.0215 16.8633 12.0215H18.3906C18.3262 11.9633 18.2558 11.9137 18.1914 11.8555C16.3353 10.6407 14.1662 10 11.9512 10H9.14648C8.67711 10.0001 8.2998 10.3773 8.2998 10.8467V16.8408C8.2998 17.3102 8.67711 17.6884 9.14648 17.6885H20.4561ZM10.165 13.9141C9.9351 13.9139 9.74232 13.7211 9.74219 13.4912V12.4385C9.74228 12.2085 9.93508 12.0158 10.165 12.0156H11.1807C11.4107 12.0156 11.6044 12.2084 11.6045 12.4385V13.4912C11.6044 13.7212 11.4107 13.9141 11.1807 13.9141H10.165ZM13.5098 13.9141C13.2797 13.9141 13.0861 13.7212 13.0859 13.4912V12.4385C13.086 12.2084 13.2797 12.0156 13.5098 12.0156L14.5254 12.0156C14.7553 12.0158 14.9482 12.2085 14.9482 12.4385V13.4912C14.9481 13.7211 14.7553 13.9139 14.5254 13.9141L13.5098 13.9141ZM14.9697 29.999C21.6832 29.999 27.3649 25.6626 29.2637 19.6895L29.501 18.8447L28.4131 18.5762C26.9225 24.5014 21.4717 28.8965 14.9697 28.8965C8.50716 28.8963 3.0788 24.5549 1.5498 18.6836C1.44701 18.3069 1.36234 17.9421 1.29687 17.5898C1.23143 17.2376 1.18558 16.8342 1.15918 16.3799L2.9043 17.9297C3.10455 18.1075 3.40946 18.0958 3.5957 17.9033L3.66699 17.833C3.85561 17.6313 3.84501 17.3148 3.64355 17.126C2.53799 16.1037 1.67993 15.3123 1.06934 14.752C0.72342 14.4345 6.37095e-05 14.4306 0 15.3115C0 16.211 0.0874218 17.0903 0.245117 17.9453L0.40332 18.6943C1.96119 25.1741 7.88926 29.9988 14.9697 29.999ZM21.9346 19.8848C22.0479 19.8848 22.3113 19.8082 22.3701 19.6797C22.4284 19.5509 22.4283 19.3974 22.3701 19.2686C22.3118 19.1397 22.0573 19.0625 21.9346 19.0625L8.78125 19.0625C8.60019 19.0627 8.29982 19.2498 8.2998 19.4736C8.2998 19.6975 8.59407 19.8846 8.78125 19.8848L21.9346 19.8848Z" fill="#111111"/>
</svg>
