<svg width="14" height="14" viewBox="0 0 14 14" fill="none" xmlns="http://www.w3.org/2000/svg">
<path d="M10.6146 13.4198L10.6152 13.4196C10.6447 13.4834 10.6858 13.5432 10.7385 13.5958C10.9781 13.8352 11.3665 13.8352 11.6061 13.5958C11.7632 13.4389 11.8173 13.218 11.7684 13.0171L11.7685 13.0171L10.7334 5.19006L13.6006 2.32549C14.1331 1.79344 14.1331 0.930919 13.6007 0.398968C13.0682 -0.133093 12.205 -0.132929 11.6724 0.399096L8.80942 3.25953L1.00281 2.22902C0.801633 2.18024 0.580563 2.23429 0.423497 2.39125C0.183906 2.63062 0.183906 3.01873 0.423497 3.25812C0.476158 3.31075 0.536015 3.35181 0.599909 3.38128L0.599707 3.38189L5.96922 6.09722L3.5319 8.53224L0.494366 8.3309C0.36342 8.30313 0.221497 8.34005 0.119809 8.44164C-0.0399364 8.60125 -0.0399364 8.85999 0.119809 9.01957C0.163385 9.06311 0.214339 9.09476 0.268652 9.11455L3.24301 10.7708L4.89469 13.7316C4.91449 13.7859 4.94618 13.8368 4.98975 13.8803C5.1495 14.0399 5.40845 14.0399 5.5682 13.8803C5.6699 13.7787 5.70684 13.6369 5.67905 13.5061L5.47565 10.4431L7.88637 8.03451L10.6146 13.4198Z" fill="#5C7080"/>
<mask id="mask0_214_7462" style="mask-type:luminance" maskUnits="userSpaceOnUse" x="0" y="0" width="14" height="14">
<path d="M10.6146 13.4198L10.6152 13.4196C10.6447 13.4834 10.6858 13.5432 10.7385 13.5958C10.9781 13.8352 11.3665 13.8352 11.6061 13.5958C11.7632 13.4389 11.8173 13.218 11.7684 13.0171L11.7685 13.0171L10.7334 5.19006L13.6006 2.32549C14.1331 1.79344 14.1331 0.930919 13.6007 0.398968C13.0682 -0.133093 12.205 -0.132929 11.6724 0.399096L8.80942 3.25953L1.00281 2.22902C0.801633 2.18024 0.580563 2.23429 0.423497 2.39125C0.183906 2.63062 0.183906 3.01873 0.423497 3.25812C0.476158 3.31075 0.536015 3.35181 0.599909 3.38128L0.599707 3.38189L5.96922 6.09722L3.5319 8.53224L0.494366 8.3309C0.36342 8.30313 0.221497 8.34005 0.119809 8.44164C-0.0399364 8.60125 -0.0399364 8.85999 0.119809 9.01957C0.163385 9.06311 0.214339 9.09476 0.268652 9.11455L3.24301 10.7708L4.89469 13.7316C4.91449 13.7859 4.94618 13.8368 4.98975 13.8803C5.1495 14.0399 5.40845 14.0399 5.5682 13.8803C5.6699 13.7787 5.70684 13.6369 5.67905 13.5061L5.47565 10.4431L7.88637 8.03451L10.6146 13.4198Z" fill="white"/>
</mask>
<g mask="url(#mask0_214_7462)">
<path d="M-1 15L15 15L15 -1L-1 -1L-1 15Z" fill="#111111"/>
</g>
</svg>
