<svg width="21" height="23" viewBox="0 0 21 23" fill="none" xmlns="http://www.w3.org/2000/svg">
<path fill-rule="evenodd" clip-rule="evenodd" d="M13.1325 0V2.1619L11.2345 2.1614V2.96787C12.7851 3.14936 14.2281 3.68232 15.481 4.48511L16.2547 3.50284L17.8256 4.74059L17.0488 5.72477C18.9377 7.54961 20.1122 10.1076 20.1125 12.9434C20.1125 18.4977 15.611 22.999 10.0565 22.999C4.5025 22.999 0.0005 18.4977 0 12.9434C0.000563348 10.0398 1.23217 7.42746 3.20119 5.59514L2.52828 4.74059L4.09922 3.50284L4.79434 4.38349C6.00909 3.63732 7.39474 3.14159 8.879 2.96787L8.8785 2.1619H6.981V0H13.1325ZM10.057 5.01278C7.8625 5.01328 5.887 5.89824 4.4485 7.33517C3.0115 8.77411 2.126 10.7495 2.126 12.9434C2.126 15.1368 3.0115 17.1122 4.448 18.5512C5.887 19.9881 7.8625 20.8736 10.0565 20.8741C12.25 20.8736 14.2255 19.9881 15.6645 18.5512C17.102 17.1122 17.987 15.1368 17.9875 12.9434C17.987 10.7495 17.102 8.77411 15.6645 7.33517C14.226 5.89824 12.25 5.01328 10.057 5.01278ZM11.2305 7.71421L11.385 7.77371L11.597 7.8552L11.2235 11.947H13.0155L13.069 11.98L13.2135 12.07L13.2 12.207L13.191 12.302L8.88155 17.9363L8.72755 17.8763L8.51605 17.7938L8.88955 13.7034H7.09755L7.04505 13.6704L6.89955 13.5804L6.91255 13.444L6.92205 13.348L11.2305 7.71421Z" fill="#666666"/>
</svg>
