<svg width="22" height="22" viewBox="0 0 22 22" fill="none" xmlns="http://www.w3.org/2000/svg">
<path d="M10.9495 0C4.87747 0 0 4.87734 0 10.949C0 17.0207 4.87756 21.898 10.9495 21.898C17.0215 21.898 21.8989 17.0206 21.8989 10.949C21.8989 4.87726 17.0214 0 10.9495 0ZM1.99082 10.949C1.99082 8.46059 2.98619 6.22098 4.62867 4.62847C6.22126 2.98614 8.46097 1.99073 10.9495 1.99073C13.438 1.99073 15.6777 2.98605 17.2703 4.62847C18.9127 6.22107 19.9081 8.46059 19.9081 10.949C19.9081 12.9396 19.2611 14.8309 18.1164 16.324C17.7182 15.7764 17.2704 15.3286 16.8223 14.9802C16.0758 14.4327 15.2297 14.0844 14.3836 14.0346H8.06282C7.06746 14.0346 6.072 14.3333 5.27571 14.8806C4.7228 15.2842 4.23587 15.7711 3.83229 16.324C2.68758 14.8309 1.99082 12.9894 1.99082 10.949ZM5.22589 17.817C5.62404 17.2198 6.02219 16.8217 6.42033 16.523C6.91811 16.1746 7.4656 16.0253 8.06282 16.0253H14.2841C14.732 16.0751 15.1799 16.2244 15.6279 16.5728C15.9763 16.8714 16.3744 17.2695 16.7726 17.817C15.1799 19.111 13.1394 19.9072 10.9495 19.9072C8.75958 19.9072 6.76876 19.111 5.22589 17.817ZM10.9495 13.0393C13.0398 13.0393 14.732 11.3471 14.732 9.25685C14.732 7.16658 13.0398 5.47454 10.9495 5.47454C8.85911 5.47454 7.1669 7.16658 7.1669 9.25685C7.1669 11.3471 8.85911 13.0393 10.9495 13.0393ZM9.70522 8.06246C10.0038 7.76378 10.4518 7.5648 10.9495 7.5648C11.4472 7.5648 11.8951 7.76387 12.1937 8.06246C12.4924 8.36106 12.6914 8.809 12.6914 9.30666C12.6914 9.80432 12.4923 10.2523 12.1937 10.5509C11.8951 10.8495 11.4472 11.0485 10.9495 11.0485C10.4518 11.0485 10.0038 10.8495 9.70522 10.5509C9.40652 10.2522 9.20754 9.80432 9.20754 9.30666C9.15772 8.809 9.35689 8.36106 9.70522 8.06246Z" fill="#666666"/>
</svg>
