<svg width="11" height="11" viewBox="0 0 11 11" fill="none" xmlns="http://www.w3.org/2000/svg">
<path d="M5.5 10.25C8.12334 10.25 10.25 8.12335 10.25 5.5C10.25 2.87666 8.12334 0.75 5.5 0.75C2.87665 0.75 0.75 2.87666 0.75 5.5C0.75 8.12335 2.87665 10.25 5.5 10.25ZM5.5 11C2.46243 11 0 8.53757 0 5.5C0 2.46243 2.46243 0 5.5 0C8.53757 0 11 2.46243 11 5.5C11 8.53757 8.53757 11 5.5 11ZM5.49999 8.25001C5.77614 8.25001 5.99999 8.02614 5.99999 7.75001C5.99999 7.47386 5.77614 7.25001 5.49999 7.25001C5.22386 7.25001 4.99999 7.47386 4.99999 7.75001C4.99999 8.02614 5.22386 8.25001 5.49999 8.25001ZM5.5 3.00001C4.79048 3.00001 4.49893 3.45603 4.61704 4.01919C4.65955 4.22189 4.52968 4.42066 4.327 4.46318C4.1243 4.50568 3.92551 4.37582 3.88301 4.17312C3.67464 3.17955 4.26893 2.25001 5.5 2.25001C7.05557 2.25001 7.67488 3.60123 6.93702 4.70802L6.91782 4.73427C6.82564 4.8495 6.72635 4.9496 6.61155 5.04761C6.56722 5.08546 6.52189 5.12197 6.468 5.16373C6.43984 5.18557 6.34941 5.25455 6.33975 5.26198C5.97582 5.54192 5.875 5.73098 5.875 6.37501C5.875 6.58211 5.7071 6.75001 5.5 6.75001C5.29289 6.75001 5.125 6.58211 5.125 6.37501C5.125 5.48858 5.3406 5.08434 5.88246 4.66752C5.89424 4.65846 5.98316 4.59063 6.00855 4.57094C6.0538 4.53587 6.09034 4.50644 6.12455 4.47724C6.20073 4.41219 6.26415 4.34891 6.32191 4.27841C6.72812 3.65318 6.42212 3.00001 5.5 3.00001Z" fill="#5C7080"/>
<mask id="mask0_214_6827" style="mask-type:luminance" maskUnits="userSpaceOnUse" x="0" y="0" width="11" height="11">
<path d="M5.5 10.25C8.12334 10.25 10.25 8.12335 10.25 5.5C10.25 2.87666 8.12334 0.75 5.5 0.75C2.87665 0.75 0.75 2.87666 0.75 5.5C0.75 8.12335 2.87665 10.25 5.5 10.25ZM5.5 11C2.46243 11 0 8.53757 0 5.5C0 2.46243 2.46243 0 5.5 0C8.53757 0 11 2.46243 11 5.5C11 8.53757 8.53757 11 5.5 11ZM5.49999 8.25001C5.77614 8.25001 5.99999 8.02614 5.99999 7.75001C5.99999 7.47386 5.77614 7.25001 5.49999 7.25001C5.22386 7.25001 4.99999 7.47386 4.99999 7.75001C4.99999 8.02614 5.22386 8.25001 5.49999 8.25001ZM5.5 3.00001C4.79048 3.00001 4.49893 3.45603 4.61704 4.01919C4.65955 4.22189 4.52968 4.42066 4.327 4.46318C4.1243 4.50568 3.92551 4.37582 3.88301 4.17312C3.67464 3.17955 4.26893 2.25001 5.5 2.25001C7.05557 2.25001 7.67488 3.60123 6.93702 4.70802L6.91782 4.73427C6.82564 4.8495 6.72635 4.9496 6.61155 5.04761C6.56722 5.08546 6.52189 5.12197 6.468 5.16373C6.43984 5.18557 6.34941 5.25455 6.33975 5.26198C5.97582 5.54192 5.875 5.73098 5.875 6.37501C5.875 6.58211 5.7071 6.75001 5.5 6.75001C5.29289 6.75001 5.125 6.58211 5.125 6.37501C5.125 5.48858 5.3406 5.08434 5.88246 4.66752C5.89424 4.65846 5.98316 4.59063 6.00855 4.57094C6.0538 4.53587 6.09034 4.50644 6.12455 4.47724C6.20073 4.41219 6.26415 4.34891 6.32191 4.27841C6.72812 3.65318 6.42212 3.00001 5.5 3.00001Z" fill="white"/>
</mask>
<g mask="url(#mask0_214_6827)">
<path d="M11.5 11.5L-0.5 11.5L-0.5 -0.5L11.5 -0.5L11.5 11.5Z" fill="#999999"/>
</g>
</svg>
