<svg width="64" height="28" viewBox="0 0 64 28" fill="none" xmlns="http://www.w3.org/2000/svg">
<path fill-rule="evenodd" clip-rule="evenodd" d="M48 0H58L55.4317 8.6948C54.3347 12.4084 51 15 48 15V0Z" fill="#FFF4EB"/>
<path d="M0 11C0 4.92487 4.92487 0 11 0H48V15H0V11Z" fill="#FFF4EB"/>
<path d="M16.93 9.44C16.62 9.43 16.35 9.29 16.13 9.01C15.73 8.49 15.53 7.51 15.53 6.06V4.83H14.21C14.2 5.61 14.11 6.31 13.94 6.93C14.4 7.27 14.83 7.65 15.25 8.07L14.85 8.68C14.47 8.29 14.08 7.94 13.7 7.62C13.37 8.4 12.89 9.04 12.26 9.54L11.73 9.07C12.36 8.59 12.82 7.95 13.12 7.17C12.8 6.94 12.47 6.73 12.15 6.55L12.53 5.99C12.8 6.15 13.06 6.31 13.32 6.49C13.44 5.97 13.5 5.42 13.51 4.83H12.35V4.13H13.51V2.82H14.21V4.13H16.24V6.06C16.24 7.2 16.34 7.99 16.55 8.44C16.63 8.63 16.71 8.73 16.79 8.73C16.86 8.73 16.93 8.61 16.99 8.37C17.05 8.11 17.09 7.73 17.11 7.23L17.66 7.51C17.61 8.37 17.51 8.92 17.35 9.16C17.23 9.34 17.09 9.44 16.93 9.44ZM8.62 4.09H10.04V2.79H10.77V4.09H11.99V4.79H10.77V6.31C11.17 6.2 11.57 6.08 11.95 5.96V6.66C11.56 6.78 11.17 6.88 10.77 6.98V8.57C10.77 9.15 10.49 9.44 9.93 9.44H9L8.84 8.75C9.13 8.78 9.41 8.8 9.68 8.8C9.92 8.8 10.04 8.66 10.04 8.39V7.16C9.54 7.27 9.03 7.37 8.52 7.47L8.35 6.79C8.93 6.71 9.49 6.6 10.04 6.48V4.79H8.62V4.09ZM9.75 9.76L10.35 10.05C9.99 10.83 9.56 11.5 9.08 12.06L8.49 11.63C8.97 11.11 9.39 10.48 9.75 9.76ZM11.89 10.01C12.1 10.59 12.29 11.21 12.45 11.88L11.72 12.04C11.59 11.32 11.42 10.69 11.21 10.15L11.89 10.01ZM13.96 9.87C14.26 10.48 14.52 11.14 14.74 11.86L14.02 12.02C13.82 11.26 13.58 10.6 13.28 10.02L13.96 9.87ZM15.91 9.64C16.51 10.39 16.96 11.04 17.28 11.6L16.69 12.02C16.35 11.41 15.9 10.74 15.33 10.01L15.91 9.64ZM26 11.92H25.14L24.96 11.25L25.85 11.27C26.14 11.27 26.29 11.08 26.29 10.7V4.01H22.45V3.35H26.99V10.9C26.99 11.58 26.66 11.92 26 11.92ZM18.99 4.49H19.69V12.01H18.99V4.49ZM20.44 2.74C20.9 3.29 21.32 3.89 21.68 4.55L21.03 4.89C20.65 4.19 20.24 3.57 19.78 3.03L20.44 2.74ZM28.88 4.12H31.23C31.42 3.7 31.61 3.25 31.79 2.78L32.51 2.94C32.35 3.35 32.18 3.74 32.01 4.12H37.11V4.82H31.66C31.21 5.67 30.72 6.42 30.18 7.08H32.76V5.61H33.49V7.08H36.57V7.74H33.49V9.21H37.28V9.91H33.49V12.06H32.76V9.91H28.73V9.21H32.76V7.74H29.43L29.27 7.08C29.85 6.48 30.39 5.72 30.88 4.82H28.88V4.12ZM42.83 5.04C42.52 5.97 42.11 6.73 41.6 7.31L41 6.89C41.82 5.91 42.35 4.54 42.59 2.8L43.31 2.91C43.23 3.43 43.14 3.91 43.03 4.35H47.23V4.82C47.02 5.67 46.75 6.51 46.41 7.34L45.7 7.14C46.01 6.52 46.26 5.82 46.46 5.04H42.83ZM43.86 5.72H44.56C44.56 6.26 44.53 6.76 44.48 7.22C45.08 9 46.13 10.41 47.64 11.45L47.17 12C45.87 11.02 44.91 9.82 44.27 8.38C44.21 8.63 44.14 8.86 44.06 9.08C43.63 10.28 42.65 11.26 41.11 12.02L40.64 11.45C42 10.79 42.9 9.95 43.35 8.95C43.67 8.1 43.84 7.02 43.86 5.72ZM39.08 3.26C39.86 4.04 40.46 4.72 40.88 5.3L40.32 5.7C39.87 5.08 39.26 4.38 38.5 3.62L39.08 3.26ZM40.3 7.55L40.93 7.79C40.37 9.17 39.75 10.47 39.06 11.68L38.39 11.38C39.13 10.13 39.76 8.85 40.3 7.55Z" fill="#FF5500"/>
<path fill-rule="evenodd" clip-rule="evenodd" d="M11 0H52.1846V17H11C4.92487 17 0 21.9249 0 28V11C0 4.92487 4.92487 0 11 0Z" fill="#FFF4EB"/>
<path fill-rule="evenodd" clip-rule="evenodd" d="M52.1846 0H64L61.4317 9.85411C60.3348 14.0629 56.534 17 52.1846 17V0Z" fill="#FFF4EB"/>
<path d="M15.16 3.83H15.9V6.92H19.61V7.62H15.9V11.9H20.46V12.6H11.56V11.9H15.16V3.83ZM25.83 6.04C25.52 6.97 25.11 7.73 24.6 8.31L24 7.89C24.82 6.91 25.35 5.54 25.59 3.8L26.31 3.91C26.23 4.43 26.14 4.91 26.03 5.35H30.23V5.82C30.02 6.67 29.75 7.51 29.41 8.34L28.7 8.14C29.01 7.52 29.26 6.82 29.46 6.04H25.83ZM26.86 6.72H27.56C27.56 7.26 27.53 7.76 27.48 8.22C28.08 10 29.13 11.41 30.64 12.45L30.17 13C28.87 12.02 27.91 10.82 27.27 9.38C27.21 9.63 27.14 9.86 27.06 10.08C26.63 11.28 25.65 12.26 24.11 13.02L23.64 12.45C25 11.79 25.9 10.95 26.35 9.95C26.67 9.1 26.84 8.02 26.86 6.72ZM22.08 4.26C22.86 5.04 23.46 5.72 23.88 6.3L23.32 6.7C22.87 6.08 22.26 5.38 21.5 4.62L22.08 4.26ZM23.3 8.55L23.93 8.79C23.37 10.17 22.75 11.47 22.06 12.68L21.39 12.38C22.13 11.13 22.76 9.85 23.3 8.55ZM32.11 4C32.72 4.5 33.23 5.01 33.64 5.51L33.14 6.01C32.77 5.53 32.26 5.02 31.61 4.48L32.11 4ZM31.96 6.34C32.55 6.84 33.05 7.33 33.45 7.82L32.95 8.32C32.59 7.85 32.09 7.35 31.47 6.82L31.96 6.34ZM33.1 9.15L33.74 9.4C33.29 10.66 32.79 11.85 32.23 12.96L31.58 12.68C32.17 11.52 32.68 10.35 33.1 9.15ZM33.95 5.5H35.35C35.19 4.96 35.02 4.45 34.82 3.98L35.56 3.86C35.72 4.34 35.87 4.89 36.03 5.5H37.28V6.2H36.82C36.65 7.52 36.42 8.62 36.14 9.5C36.62 10.33 37.03 11.09 37.35 11.77L36.78 12.17C36.5 11.57 36.19 10.95 35.84 10.31C35.37 11.32 34.69 12.23 33.79 13.03L33.35 12.46C34.21 11.69 34.85 10.84 35.27 9.92C35.32 9.8 35.37 9.69 35.41 9.57C35.01 8.87 34.56 8.15 34.07 7.4L34.63 7.05C35.01 7.63 35.36 8.19 35.68 8.72C35.88 7.99 36.04 7.15 36.16 6.2H33.95V5.5ZM37.87 4.7H38.54V10.95H37.87V4.7ZM39.27 12.92H37.95L37.79 12.23C38.22 12.25 38.63 12.27 39.02 12.27C39.32 12.27 39.47 12.11 39.47 11.8V3.86H40.16V11.99C40.16 12.61 39.86 12.92 39.27 12.92ZM48.61 7.5V11.06H47.9V8.16H43.95V11.08H43.23V7.5H48.61ZM45.49 8.8H46.2V9.49C46.16 10.46 45.82 11.24 45.18 11.82C44.55 12.35 43.52 12.77 42.09 13.07L41.68 12.43C43.1 12.15 44.09 11.79 44.66 11.34C45.18 10.86 45.45 10.25 45.49 9.49V8.8ZM49.17 12.84H47.23C46.61 12.84 46.3 12.52 46.3 11.89V9.97H46.99V11.74C46.99 12.03 47.14 12.18 47.44 12.18H49.04C49.25 12.18 49.4 12.12 49.5 12.01C49.62 11.87 49.7 11.48 49.74 10.82L50.4 11.03C50.34 11.89 50.2 12.41 50 12.6C49.82 12.76 49.55 12.84 49.17 12.84ZM44.15 3.83H44.86V7.08H44.15V3.83ZM42.19 4.25H42.88V6.83H42.19V4.25ZM47.07 5.24C46.75 5.85 46.37 6.36 45.94 6.76L45.4 6.26C46.08 5.59 46.59 4.75 46.92 3.75L47.61 3.93C47.53 4.16 47.45 4.38 47.37 4.59H50.32V5.24H47.07ZM47.96 5.55C48.54 5.89 49.08 6.3 49.58 6.78L49.14 7.29C48.63 6.78 48.09 6.34 47.51 5.97L47.96 5.55Z" fill="#FF5500"/>
</svg>
