<svg width="12" height="12" viewBox="0 0 12 12" fill="none" xmlns="http://www.w3.org/2000/svg">
<path d="M8 0.5C9.933 0.5 11.5 2.067 11.5 4V8C11.5 9.933 9.933 11.5 8 11.5H4C2.067 11.5 0.5 9.933 0.5 8V4C0.5 2.067 2.067 0.5 4 0.5H8ZM4 1C2.34315 1 1 2.34315 1 4V8C1 9.65685 2.34315 11 4 11H8C9.65685 11 11 9.65685 11 8V4C11 2.34315 9.65685 1 8 1H4ZM7.98926 2.71289C7.80119 3.10375 7.5051 3.57586 7.10254 4.12988H8.40332V6.69922H7.21191V8.37402C7.21192 8.644 7.32404 8.79492 7.54297 8.79492H8.55957C8.66982 8.79491 8.75458 8.73586 8.80469 8.62988L8.81445 8.6084C8.85846 8.49978 8.88738 8.25445 8.90332 7.85938L9.49609 8.04199L9.46289 8.36328C9.40789 8.81351 9.33046 9.09632 9.23828 9.19629C9.12739 9.30289 8.94405 9.36035 8.70215 9.36035H7.3125C6.82354 9.36035 6.58703 9.09119 6.58691 8.52734V6.69922H5.44629L5.42871 6.85352C5.27634 7.9715 4.5491 8.81285 3.24219 9.375L2.92773 9.5L2.57715 8.95117C3.55473 8.68362 4.71611 7.80406 4.84668 6.76855L4.85547 6.69922H3.5752V4.12988H6.44629L6.59668 3.90332C6.8544 3.50155 7.08108 3.09036 7.2793 2.66406L7.35254 2.5L7.98926 2.71289ZM4.18555 6.1416H7.79395V4.69531H4.18555V6.1416ZM4.66406 2.71289C4.86067 3.00073 5.04934 3.30064 5.22852 3.61133L5.32812 3.78906L4.76953 4.05859L4.65234 3.83691C4.46964 3.50311 4.27618 3.19314 4.07031 2.90332L3.98926 2.79297L4.54297 2.54004L4.66406 2.71289Z" fill="#949494"/>
</svg>
