<svg width="12" height="12" viewBox="0 0 12 12" fill="none" xmlns="http://www.w3.org/2000/svg">
<path d="M8 0.5C9.933 0.5 11.5 2.067 11.5 4V8C11.5 9.933 9.933 11.5 8 11.5H4C2.067 11.5 0.5 9.933 0.5 8V4C0.5 2.067 2.067 0.5 4 0.5H8ZM8 1H4C2.34315 1 1 2.34315 1 4V8C1 9.65685 2.34315 11 4 11H8C9.65685 11 11 9.65685 11 8V4C11 2.34315 9.65685 1 8 1Z" fill="#949494"/>
<path d="M3.4235 2.5C3.36142 3.00758 3.29157 3.5 3.21397 3.97727H2.5V4.5H3.12084C2.98115 5.26515 2.81818 5.97727 2.63193 6.63636C2.98891 6.9697 3.32262 7.28788 3.63304 7.59848C3.33814 8.17424 2.96563 8.65909 2.50776 9.06818L2.85698 9.5C3.32262 9.07576 3.70288 8.57576 4.0133 8C4.31596 8.31818 4.57206 8.62121 4.78936 8.90152L5.16186 8.47727C4.92905 8.17424 4.62639 7.84091 4.26164 7.4697C4.63415 6.57576 4.85144 5.52273 4.91353 4.29545V3.97727H3.76497C3.83481 3.53788 3.90466 3.06061 3.9745 2.54545L3.4235 2.5ZM3.86585 7.07576C3.66408 6.87879 3.45455 6.68182 3.22949 6.47727C3.3847 5.95455 3.53215 5.29545 3.6796 4.5H4.38581C4.33149 5.46212 4.16075 6.31818 3.86585 7.07576ZM9.01109 6.25758H5.56541V9.48485H6.10089V9.0303H8.47561V9.48485H9.01109V6.25758ZM6.10089 8.51515V6.75758H8.47561V8.51515H6.10089ZM5.26275 5.57576C6.52772 5.5 7.67627 5.38636 8.70843 5.24242C8.80155 5.43182 8.88692 5.62879 8.98004 5.83333L9.5 5.59091C9.12749 4.79545 8.72395 4.06818 8.29712 3.40152L7.81596 3.62879C8.04102 3.97727 8.25832 4.36364 8.47561 4.7803C7.6918 4.90152 6.86142 4.99242 5.99224 5.04545C6.45787 4.46212 6.91574 3.68182 7.38137 2.69697L6.85366 2.52273C6.18625 4.00758 5.62749 4.85606 5.17738 5.08333L5.26275 5.57576Z" fill="#949494"/>
</svg>
