<svg width="28" height="12" viewBox="0 0 28 12" fill="none" xmlns="http://www.w3.org/2000/svg">
<path d="M24 0.5C25.933 0.5 27.5 2.067 27.5 4V8C27.5 9.933 25.933 11.5 24 11.5H4C2.067 11.5 0.5 9.933 0.5 8V4C0.5 2.067 2.067 0.5 4 0.5H24ZM4 1C2.34315 1 1 2.34315 1 4V8C1 9.65685 2.34315 11 4 11H24C25.6569 11 27 9.65685 27 8V4C27 2.34315 25.6569 1 24 1H4ZM5.14551 2.60742L5.00195 3.00195L4.96875 3.08594H9.35352V3.58105H4.73828L4.34668 4.10742H8.79004V6.5H5.82617L5.40918 7.03418L8.82031 7.0332V7.46094C8.32647 8.02889 7.39713 8.59 7.3877 8.5957L7.72461 8.6748C8.2803 8.79516 8.88678 8.87154 9.54688 8.90625L9.69434 8.91309L9.55762 9.4541C8.21482 9.34538 6.68507 8.91907 6.66016 8.91211L6.5 8.9668C5.69347 9.23475 4.74456 9.40873 3.65332 9.48828L3.47266 9.5L3.23926 8.99609L3.82227 8.94531C4.74179 8.85854 5.40972 8.76156 5.82617 8.65527L5.98047 8.61621L5.83984 8.54199C5.4008 8.31071 4.61688 7.75596 4.60156 7.74512L4.41992 7.8623C4.2104 7.99575 3.98929 8.12063 3.75977 8.23535L3.63379 8.2959L3.32715 7.78711C4.07281 7.60251 5.15711 6.50703 5.16406 6.5H4.2041L4.20508 4.27441L3.99023 4.49902C3.83994 4.65009 3.67641 4.797 3.49805 4.94141L3.40918 5.01172L3.04883 4.53809L3.21289 4.40723C3.83113 3.89185 4.27179 3.27983 4.53125 2.5752L4.55664 2.5L5.14551 2.60742ZM25 6.06543H20.4863L20.2432 6.91992H23.9619L23.9521 7.10449C23.888 8.23348 23.7708 8.9012 23.6055 9.10645C23.4281 9.32637 23.0698 9.44141 22.54 9.44141L22.3643 9.44043C22.1324 9.43583 21.9105 9.42162 21.6992 9.39941L21.5781 9.38477L21.3809 8.85547L21.541 8.86914C21.7852 8.88878 21.9985 8.9014 22.1924 8.90625L22.3809 8.9082C22.7823 8.90814 23.0424 8.82557 23.1475 8.65039C23.2265 8.50652 23.2848 8.20041 23.3301 7.71094L23.3516 7.45312L19.542 7.45215L19.9004 6.06543H18.1992V5.49414H25V6.06543ZM13.1113 7.23438L13.0342 7.3623C12.5815 8.09478 12.0622 8.73828 11.4717 9.29688L11.3574 9.40137L10.8584 9.04785L11.0752 8.84766C11.5229 8.41875 11.9238 7.94347 12.2793 7.41895L12.4873 7.09766L12.5654 6.96777L13.1113 7.23438ZM15.5684 7.03711C16.2059 7.74163 16.7145 8.36864 17.0957 8.91797L17.1416 8.98438L16.5879 9.37109L16.5361 9.29004C16.2108 8.78615 15.8005 8.24208 15.3027 7.65332L14.9502 7.24512L15.4639 6.92188L15.5684 7.03711ZM5.16895 7.60254C5.62567 7.91779 6.15954 8.19325 6.7002 8.38867C6.71316 8.3822 7.66907 7.90419 8.01367 7.59766L8.13477 7.49121H5.00684L5.16895 7.60254ZM16.7607 2.83301L16.5605 3.40234C16.1056 4.66713 15.4385 5.95215 15.4385 5.95215L17.4014 5.95117V6.53027H10.5771V5.95117L14.7871 5.95215C14.7871 5.95215 15.731 3.95197 16.0908 2.83008L16.1602 2.60938L16.7607 2.83301ZM4.79199 6.05859H8.20996V5.50195H4.79199V6.05859ZM11.6934 3.20117C11.9831 3.73883 12.2632 4.32672 12.5371 4.96973L12.6172 5.15918L12.042 5.44043L11.9678 5.25391C11.7048 4.5973 11.4236 3.99845 11.124 3.45996L11.0439 3.31934L11.6113 3.05176L11.6934 3.20117ZM13.5254 2.75488C13.809 3.32826 14.0825 3.953 14.3506 4.63379L14.4307 4.83887L13.8691 5.12012L13.793 4.9209C13.5236 4.22875 13.2428 3.59516 12.9502 3.02441L12.8691 2.87012L13.4443 2.59473L13.5254 2.75488ZM4.79199 5.09082H8.20996V4.54199H4.79199V5.09082ZM23.8584 4.86914H19.3486V2.79688H23.8584V4.86914ZM19.96 4.34375H23.248V3.32227H19.96V4.34375Z" fill="#949494"/>
</svg>
