<svg width="16" height="16" viewBox="0 0 16 16" fill="none" xmlns="http://www.w3.org/2000/svg">
<path fill-rule="evenodd" clip-rule="evenodd" d="M2 5.5C2 5.22386 2.22386 5 2.5 5H9L8.44862 3.34585C8.29939 2.89817 8.79639 2.51196 9.19334 2.76714L13.7971 5.7267C14.1497 5.95338 13.9892 6.5 13.57 6.5H2.5C2.22386 6.5 2 6.27614 2 6V5.5Z" fill="#97A6B3"/>
<path fill-rule="evenodd" clip-rule="evenodd" d="M14 10C14 10.2761 13.7761 10.5 13.5 10.5H7L7.55138 12.1542C7.70061 12.6018 7.20361 12.988 6.80666 12.7329L2.2029 9.7733C1.8503 9.54662 2.01084 9 2.43002 9H13.5C13.7761 9 14 9.22386 14 9.5V10Z" fill="#97A6B3"/>
</svg>
