<svg width="14" height="12" viewBox="0 0 14 12" fill="none" xmlns="http://www.w3.org/2000/svg">
<path d="M10 0.5C11.933 0.5 13.5 2.067 13.5 4V8C13.5 9.933 11.933 11.5 10 11.5H4C2.067 11.5 0.5 9.933 0.5 8V4C0.5 2.067 2.067 0.5 4 0.5H10ZM4 1C2.34315 1 1 2.34315 1 4V8C1 9.65685 2.34315 11 4 11H10C11.6569 11 13 9.65685 13 8V4C13 2.34315 11.6569 1 10 1H4ZM5.36523 6.6748C6.23811 6.67485 6.96428 6.87734 7.5332 7.28711C8.03973 7.64774 8.15504 8.3514 7.79199 8.85645C7.58091 9.15007 7.24182 9.32474 6.87988 9.3252H3.84961C3.22858 9.32436 2.72613 8.82025 2.72656 8.19922C2.72693 7.83633 2.90176 7.49562 3.19531 7.28809C3.76574 6.87727 4.49226 6.6748 5.36523 6.6748ZM5.36523 7.3252C4.62086 7.3252 4.0271 7.49059 3.57324 7.81738C3.44999 7.90452 3.37623 8.04672 3.37598 8.19922C3.37571 8.46155 3.58858 8.67454 3.85059 8.6748H6.87891C7.03159 8.67465 7.1755 8.60148 7.26465 8.47754C7.41774 8.26458 7.36856 7.96798 7.1543 7.81543C6.70283 7.49042 6.10938 7.32524 5.36523 7.3252ZM10.9023 6.09961C11.0896 6.09961 11.2451 6.26886 11.2451 6.48047C11.2449 6.66331 11.1278 6.81745 10.9707 6.85254L10.8916 6.86035H9.08203C8.89511 6.86012 8.74046 6.69171 8.74023 6.48047C8.74023 6.29737 8.85734 6.14249 9.01465 6.10742L9.09375 6.09961H10.9023ZM5.36523 2.4248C6.37303 2.42495 7.19043 3.24217 7.19043 4.25C7.19043 5.25783 6.37303 6.07505 5.36523 6.0752C4.35731 6.0752 3.54004 5.25792 3.54004 4.25C3.54004 3.24208 4.35731 2.4248 5.36523 2.4248ZM5.36523 3.0752C4.7163 3.0752 4.19043 3.60107 4.19043 4.25C4.19043 4.89893 4.7163 5.4248 5.36523 5.4248C6.01404 5.42466 6.54004 4.89884 6.54004 4.25C6.54004 3.60116 6.01404 3.07534 5.36523 3.0752ZM10.9023 3.59961C11.0896 3.59961 11.2451 3.76886 11.2451 3.98047C11.2449 4.16331 11.1278 4.31745 10.9707 4.35254L10.8916 4.36035H9.08203C8.89511 4.36012 8.74046 4.19171 8.74023 3.98047C8.74023 3.79737 8.85734 3.64249 9.01465 3.60742L9.09375 3.59961H10.9023Z" fill="#949494"/>
</svg>
