<svg width="24" height="24" viewBox="0 0 24 24" fill="none" xmlns="http://www.w3.org/2000/svg">
<path d="M15.625 1.5C16.1082 1.5 16.5 1.89175 16.5 2.375V3H16.8C19.1196 3 21 4.8804 21 7.2V15.1974C20.9991 17.5943 19.2973 19.6534 16.9434 20.1052C15.513 20.3808 13.8652 20.5186 12 20.5186C10.1348 20.5186 8.48698 20.3808 7.05663 20.1052C4.70268 19.6534 3.00091 17.5943 3 15.1974V7.2C3 4.8804 4.8804 3 7.2 3H7.5V2.375C7.5 1.89175 7.89175 1.5 8.375 1.5C8.85825 1.5 9.25 1.89175 9.25 2.375V3H14.75V2.375C14.75 1.89175 15.1418 1.5 15.625 1.5ZM19.249 10.875H4.749L4.75 15.1968C4.75059 16.7547 5.85668 18.093 7.3877 18.3868C8.70145 18.6399 10.24 18.7686 12 18.7686C13.76 18.7686 15.2986 18.6399 16.6135 18.3866C18.1433 18.093 19.2494 16.7547 19.25 15.1974L19.249 10.875ZM8 13.2488C8.69036 13.2488 9.25 13.8084 9.25 14.4988C9.25 15.1892 8.69036 15.7488 8 15.7488C7.30964 15.7488 6.75 15.1892 6.75 14.4988C6.75 13.8084 7.30964 13.2488 8 13.2488ZM12 13.2488C12.6904 13.2488 13.25 13.8084 13.25 14.4988C13.25 15.1892 12.6904 15.7488 12 15.7488C11.3096 15.7488 10.75 15.1892 10.75 14.4988C10.75 13.8084 11.3096 13.2488 12 13.2488ZM16 13.2488C16.6904 13.2488 17.25 13.8084 17.25 14.4988C17.25 15.1892 16.6904 15.7488 16 15.7488C15.3096 15.7488 14.75 15.1892 14.75 14.4988C14.75 13.8084 15.3096 13.2488 16 13.2488ZM14.75 4.75H9.25V5.625C9.25 6.10825 8.85825 6.5 8.375 6.5C7.89175 6.5 7.5 6.10825 7.5 5.625V4.75H7.2C5.8469 4.75 4.75 5.8469 4.75 7.2L4.749 9.125H19.249L19.25 7.2C19.25 5.8469 18.1531 4.75 16.8 4.75H16.5V5.625C16.5 6.10825 16.1082 6.5 15.625 6.5C15.1418 6.5 14.75 6.10825 14.75 5.625V4.75Z" fill="#111111"/>
</svg>
