<svg width="64" height="28" viewBox="0 0 64 28" fill="none" xmlns="http://www.w3.org/2000/svg">
<path fill-rule="evenodd" clip-rule="evenodd" d="M11 0H52V17H11C4.92487 17 0 21.9249 0 28V11C0 4.92487 4.92487 0 11 0Z" fill="#FFF4EB"/>
<path fill-rule="evenodd" clip-rule="evenodd" d="M52 0H64L61.4192 9.74971C60.2879 14.0235 56.421 17 52 17V0Z" fill="#FFF4EB"/>
<path d="M12.6 7.73H21.42V8.31H16.93V11.47C17.13 11.44 17.33 11.41 17.51 11.38V11.95C17.33 11.98 17.13 12.01 16.93 12.05V13.02H16.23V12.14C15.28 12.25 14.11 12.35 12.72 12.43L12.63 11.81L13.56 11.77V8.31H12.6V7.73ZM14.21 11.74C14.95 11.69 15.63 11.63 16.23 11.56V10.88H14.21V11.74ZM14.21 10.35H16.23V9.6H14.21V10.35ZM14.21 9.06H16.23V8.31H14.21V9.06ZM13.87 4.19H20.19V7.07H13.87V4.19ZM19.5 6.55V5.88H14.56V6.55H19.5ZM14.56 5.37H19.5V4.73H14.56V5.37ZM17.77 9.57H17.45V8.98H20.86V9.54C20.67 10.31 20.33 10.97 19.85 11.53C20.29 11.86 20.81 12.15 21.43 12.41L21.06 13.01C20.4 12.7 19.84 12.36 19.39 11.99C18.93 12.39 18.37 12.73 17.72 13.01L17.35 12.45C17.95 12.19 18.47 11.89 18.9 11.53C18.34 10.95 17.97 10.3 17.77 9.57ZM19.34 11.1C19.74 10.64 20.03 10.13 20.21 9.57H18.39C18.57 10.14 18.88 10.65 19.34 11.1ZM24.56 5.01L25.26 5.28C24.73 6.87 24.04 8.08 23.19 8.91L22.58 8.39C23.46 7.55 24.12 6.42 24.56 5.01ZM29.43 8.12L30.06 8.51C28.9 10.83 26.59 12.33 23.14 13.01L22.72 12.32C26.1 11.68 28.33 10.28 29.43 8.12ZM26.63 3.86H27.37V9.63H26.63V3.86ZM29.09 4.85C30.07 5.94 30.92 7.14 31.66 8.44L30.98 8.79C30.22 7.42 29.37 6.2 28.44 5.14L29.09 4.85ZM32.78 4.78H34.08V3.84H34.74V4.78H36.11V5.44H34.74V6.42H35.92V7.06H34.74V8.1H36.24V8.76H34.74V9.34C35.26 9.75 35.78 10.22 36.31 10.75L35.93 11.33C35.47 10.74 35.07 10.27 34.74 9.93V12.99H34.08V9.95C33.72 10.71 33.25 11.39 32.68 12.01L32.38 11.28C33.18 10.54 33.74 9.7 34.08 8.76H32.55V8.1H34.08V7.06H32.83V6.42H34.08V5.44H32.78V4.78ZM40.35 12.82H38.93C38.41 12.82 38.16 12.53 38.16 11.96V9.86L36.25 10.23L36.14 9.54L38.16 9.14V7.58L36.56 7.89L36.45 7.19L38.16 6.86V5.26C37.62 5.36 37.07 5.44 36.5 5.48L36.28 4.85C37.94 4.69 39.32 4.37 40.44 3.88L40.79 4.46C40.17 4.72 39.53 4.94 38.85 5.11V6.72L40.82 6.33L40.93 7.03L38.85 7.44V9.01L41.28 8.53L41.39 9.23L38.85 9.72V11.81C38.85 12.03 38.95 12.14 39.16 12.14H40.22C40.42 12.14 40.57 12.08 40.65 11.97C40.75 11.84 40.83 11.45 40.87 10.81L41.51 11.02C41.45 11.87 41.32 12.39 41.13 12.58C40.97 12.74 40.71 12.82 40.35 12.82ZM45.7 4.58V11.95H45V11.28H43.52V12.19H42.82V4.58H45.7ZM43.52 10.61H45V8.2H43.52V10.61ZM43.52 7.53H45V5.24H43.52V7.53ZM47.14 7.56C47.76 8.5 48.24 9.32 48.57 10.02L47.97 10.44C47.62 9.69 47.15 8.85 46.55 7.93L47.14 7.56ZM49.42 12.9H47.67L47.52 12.2C48.1 12.22 48.65 12.24 49.18 12.24C49.47 12.24 49.62 12.08 49.62 11.77V6.36H46.16V5.67H49.62V3.91H50.35V5.67H51.58V6.36H50.35V11.95C50.35 12.58 50.04 12.9 49.42 12.9Z" fill="#FF5500"/>
</svg>
