<svg width="20" height="20" viewBox="0 0 20 20" fill="none" xmlns="http://www.w3.org/2000/svg">
<path d="M8.0828 2.00002C9.11026 2.00115 10.1782 2.05079 11.2865 2.14897C11.9087 2.20451 12.5025 2.4354 12.9987 2.81494C14.4463 3.9222 14.7222 5.99335 13.6162 7.44191L11 10.8685V15.47C11 16.6631 10.188 17.703 9.03059 17.9924L7.98208 18.2545C7.79171 18.3021 7.59623 18.3262 7.4 18.3262C6.07451 18.3262 5 17.2516 5 15.9262V10.8672L2.66357 7.18713C2.38123 6.73981 2.20876 6.23179 2.16229 5.70487C2.00215 3.88938 3.34408 2.28782 5.15957 2.12775C6.13398 2.04156 7.10839 1.99899 8.0828 2.00002ZM8.08145 3.25002C7.1443 3.24903 6.20709 3.28998 5.26971 3.37289C4.14159 3.47235 3.30797 4.46724 3.40745 5.59504C3.43634 5.92249 3.54369 6.23963 3.72061 6.51992L6.05528 10.1973C6.18246 10.3976 6.25 10.6299 6.25 10.8672V15.9262C6.25 16.5613 6.76487 17.0762 7.4 17.0762C7.49402 17.0762 7.58769 17.0646 7.67891 17.0418L8.72742 16.7797C9.32839 16.6294 9.75 16.0895 9.75 15.47V10.8685C9.75 10.5943 9.84012 10.3278 10.0065 10.1099L12.6227 6.68335C13.3103 5.78283 13.1386 4.49566 12.2393 3.8078C11.931 3.57203 11.5621 3.42854 11.1754 3.39402C10.1034 3.29906 9.07178 3.25111 8.08145 3.25002ZM16 14.875C16.3452 14.875 16.625 15.1548 16.625 15.5C16.625 15.8452 16.3452 16.125 16 16.125H14.5C14.1548 16.125 13.875 15.8452 13.875 15.5C13.875 15.1548 14.1548 14.875 14.5 14.875H16ZM17.5 10.875C17.8452 10.875 18.125 11.1548 18.125 11.5C18.125 11.8452 17.8452 12.125 17.5 12.125H14.5C14.1548 12.125 13.875 11.8452 13.875 11.5C13.875 11.1548 14.1548 10.875 14.5 10.875H17.5Z" fill="#111111"/>
</svg>
