<svg width="20" height="20" viewBox="0 0 20 20" fill="none" xmlns="http://www.w3.org/2000/svg">
<path d="M10 1.5C10.5586 1.5 11.1171 1.52643 11.6757 1.57929L12.2343 1.64066C15.3352 2.03083 17.8017 4.42928 18.2785 7.518C18.4261 8.4745 18.5 9.40021 18.5 10.2951C18.5 10.9426 18.4613 11.59 18.384 12.2375C18.0034 15.4087 15.5248 17.9205 12.3588 18.3428C11.5725 18.4476 10.7863 18.5 10 18.5C9.40684 18.5 8.81368 18.4702 8.22052 18.4106L7.6273 18.3415C4.40943 17.912 1.90912 15.3264 1.58777 12.096C1.52928 11.5079 1.5 10.9076 1.5 10.2951C1.5 9.40405 1.56199 8.51297 1.68596 7.62188C2.12228 4.497 4.59494 2.04997 7.72425 1.64658C8.4828 1.54875 9.2414 1.5 10 1.5ZM10 2.75C9.29425 2.75 8.58906 2.79539 7.88406 2.88632C5.31359 3.21767 3.28238 5.22774 2.92403 7.79413C2.80798 8.62828 2.75 9.46182 2.75 10.2951C2.75 10.8664 2.77725 11.4254 2.83163 11.9722C3.0956 14.6258 5.14942 16.7497 7.77187 17.0999L8.3455 17.1669C8.89718 17.2223 9.44863 17.25 10 17.25C10.7312 17.25 11.4622 17.2013 12.1935 17.1037C14.7941 16.7569 16.8303 14.6936 17.1428 12.0892C17.2143 11.4909 17.25 10.893 17.25 10.2951C17.25 9.46552 17.1812 8.60346 17.0431 7.7087C16.6515 5.17154 14.6254 3.20138 12.0978 2.88318L11.558 2.82373C11.0385 2.77457 10.5192 2.75 10 2.75ZM10 5.375C10.3452 5.375 10.625 5.65482 10.625 6V9.12037C10.625 9.43721 10.7963 9.72931 11.0728 9.884L13.3051 11.1328C13.6064 11.3013 13.714 11.6821 13.5455 11.9834C13.3769 12.2846 12.9961 12.3922 12.6949 12.2237L10.4625 10.9749C9.79099 10.5992 9.375 9.88986 9.375 9.12037V6C9.375 5.65482 9.65482 5.375 10 5.375Z" fill="#111111"/>
</svg>
