<svg width="64" height="28" viewBox="0 0 64 28" fill="none" xmlns="http://www.w3.org/2000/svg">
<path fill-rule="evenodd" clip-rule="evenodd" d="M48 0H58L55.4317 8.6948C54.3347 12.4084 51 15 48 15V0Z" fill="#FFF4EB"/>
<path d="M0 11C0 4.92487 4.92487 0 11 0H48V15H0V11Z" fill="#FFF4EB"/>
<path d="M16.93 9.44C16.62 9.43 16.35 9.29 16.13 9.01C15.73 8.49 15.53 7.51 15.53 6.06V4.83H14.21C14.2 5.61 14.11 6.31 13.94 6.93C14.4 7.27 14.83 7.65 15.25 8.07L14.85 8.68C14.47 8.29 14.08 7.94 13.7 7.62C13.37 8.4 12.89 9.04 12.26 9.54L11.73 9.07C12.36 8.59 12.82 7.95 13.12 7.17C12.8 6.94 12.47 6.73 12.15 6.55L12.53 5.99C12.8 6.15 13.06 6.31 13.32 6.49C13.44 5.97 13.5 5.42 13.51 4.83H12.35V4.13H13.51V2.82H14.21V4.13H16.24V6.06C16.24 7.2 16.34 7.99 16.55 8.44C16.63 8.63 16.71 8.73 16.79 8.73C16.86 8.73 16.93 8.61 16.99 8.37C17.05 8.11 17.09 7.73 17.11 7.23L17.66 7.51C17.61 8.37 17.51 8.92 17.35 9.16C17.23 9.34 17.09 9.44 16.93 9.44ZM8.62 4.09H10.04V2.79H10.77V4.09H11.99V4.79H10.77V6.31C11.17 6.2 11.57 6.08 11.95 5.96V6.66C11.56 6.78 11.17 6.88 10.77 6.98V8.57C10.77 9.15 10.49 9.44 9.93 9.44H9L8.84 8.75C9.13 8.78 9.41 8.8 9.68 8.8C9.92 8.8 10.04 8.66 10.04 8.39V7.16C9.54 7.27 9.03 7.37 8.52 7.47L8.35 6.79C8.93 6.71 9.49 6.6 10.04 6.48V4.79H8.62V4.09ZM9.75 9.76L10.35 10.05C9.99 10.83 9.56 11.5 9.08 12.06L8.49 11.63C8.97 11.11 9.39 10.48 9.75 9.76ZM11.89 10.01C12.1 10.59 12.29 11.21 12.45 11.88L11.72 12.04C11.59 11.32 11.42 10.69 11.21 10.15L11.89 10.01ZM13.96 9.87C14.26 10.48 14.52 11.14 14.74 11.86L14.02 12.02C13.82 11.26 13.58 10.6 13.28 10.02L13.96 9.87ZM15.91 9.64C16.51 10.39 16.96 11.04 17.28 11.6L16.69 12.02C16.35 11.41 15.9 10.74 15.33 10.01L15.91 9.64ZM26 11.92H25.14L24.96 11.25L25.85 11.27C26.14 11.27 26.29 11.08 26.29 10.7V4.01H22.45V3.35H26.99V10.9C26.99 11.58 26.66 11.92 26 11.92ZM18.99 4.49H19.69V12.01H18.99V4.49ZM20.44 2.74C20.9 3.29 21.32 3.89 21.68 4.55L21.03 4.89C20.65 4.19 20.24 3.57 19.78 3.03L20.44 2.74ZM28.88 4.12H31.23C31.42 3.7 31.61 3.25 31.79 2.78L32.51 2.94C32.35 3.35 32.18 3.74 32.01 4.12H37.11V4.82H31.66C31.21 5.67 30.72 6.42 30.18 7.08H32.76V5.61H33.49V7.08H36.57V7.74H33.49V9.21H37.28V9.91H33.49V12.06H32.76V9.91H28.73V9.21H32.76V7.74H29.43L29.27 7.08C29.85 6.48 30.39 5.72 30.88 4.82H28.88V4.12ZM42.83 5.04C42.52 5.97 42.11 6.73 41.6 7.31L41 6.89C41.82 5.91 42.35 4.54 42.59 2.8L43.31 2.91C43.23 3.43 43.14 3.91 43.03 4.35H47.23V4.82C47.02 5.67 46.75 6.51 46.41 7.34L45.7 7.14C46.01 6.52 46.26 5.82 46.46 5.04H42.83ZM43.86 5.72H44.56C44.56 6.26 44.53 6.76 44.48 7.22C45.08 9 46.13 10.41 47.64 11.45L47.17 12C45.87 11.02 44.91 9.82 44.27 8.38C44.21 8.63 44.14 8.86 44.06 9.08C43.63 10.28 42.65 11.26 41.11 12.02L40.64 11.45C42 10.79 42.9 9.95 43.35 8.95C43.67 8.1 43.84 7.02 43.86 5.72ZM39.08 3.26C39.86 4.04 40.46 4.72 40.88 5.3L40.32 5.7C39.87 5.08 39.26 4.38 38.5 3.62L39.08 3.26ZM40.3 7.55L40.93 7.79C40.37 9.17 39.75 10.47 39.06 11.68L38.39 11.38C39.13 10.13 39.76 8.85 40.3 7.55Z" fill="#FF5500"/>
<path fill-rule="evenodd" clip-rule="evenodd" d="M11 0H52.1846V17H11C4.92487 17 0 21.9249 0 28V11C0 4.92487 4.92487 0 11 0Z" fill="#FFF4EB"/>
<path fill-rule="evenodd" clip-rule="evenodd" d="M52.1846 0H64L61.4317 9.85411C60.3348 14.0629 56.534 17 52.1846 17V0Z" fill="#FFF4EB"/>
<path d="M14.44 3.86C14.62 4.22 14.78 4.63 14.93 5.09H17.1C17.32 4.66 17.48 4.21 17.59 3.74L18.29 3.84C18.17 4.28 18.01 4.7 17.79 5.09H19.6V8.52H12.44V5.09H14.25C14.09 4.68 13.92 4.31 13.72 3.98L14.44 3.86ZM18.9 7.89V5.73H16.32V7.89H18.9ZM15.65 7.89V5.73H13.14V7.89H15.65ZM14.21 5.98C14.51 6.42 14.77 6.94 15 7.52L14.43 7.68C14.23 7.15 13.97 6.64 13.66 6.16L14.21 5.98ZM17.74 6.03L18.31 6.18C18.09 6.76 17.82 7.27 17.48 7.71L16.92 7.5C17.23 7.12 17.5 6.63 17.74 6.03ZM18.96 9.21V13.01H18.27V12.62H13.82V13.01H13.12V9.21H18.96ZM13.82 12.01H18.27V11.2H13.82V12.01ZM13.82 10.64H18.27V9.81H13.82V10.64ZM27.27 9.75H25.31V9.05H29.98V9.75H28.01V11.96H30.44V12.66H24.86V11.96H27.27V9.75ZM27.96 6.93C27.23 7.57 26.31 8.11 25.21 8.54L24.76 7.95C26.63 7.25 27.93 6.25 28.65 4.97H25.23V4.28H29.51V4.85C29.25 5.45 28.89 5.99 28.43 6.48C29.27 7.01 29.99 7.54 30.57 8.07L30.04 8.6C29.52 8.07 28.83 7.51 27.96 6.93ZM24.76 10.78V11.46C23.82 11.94 22.75 12.33 21.57 12.63L21.47 11.94C22.72 11.65 23.82 11.26 24.76 10.78ZM23.17 3.82L23.86 4.09C23.36 5.37 22.86 6.38 22.35 7.14C22.81 7.1 23.27 7.04 23.74 6.96C23.93 6.61 24.13 6.24 24.33 5.85L24.99 6.1C24.07 7.79 23.3 8.99 22.69 9.71C23.39 9.56 24.08 9.36 24.78 9.11V9.77C23.75 10.13 22.76 10.37 21.81 10.5L21.62 9.84C21.74 9.79 21.85 9.72 21.94 9.64C22.34 9.24 22.82 8.56 23.38 7.6C22.81 7.69 22.24 7.77 21.67 7.85L21.49 7.19C21.6 7.14 21.7 7.05 21.79 6.92C22.32 6.02 22.78 4.98 23.17 3.82ZM32.54 7.01C33.3 7.32 34 7.69 34.63 8.12L34.26 8.7C33.59 8.2 32.9 7.8 32.19 7.52L32.54 7.01ZM33.46 5.61C34.22 5.92 34.9 6.29 35.52 6.73L35.15 7.3C34.49 6.8 33.82 6.4 33.12 6.12L33.46 5.61ZM36.22 5.61H36.93V7.71C36.91 8.26 36.84 8.76 36.73 9.22H40.45V9.92H36.49C36.42 10.08 36.34 10.24 36.26 10.39C37.72 11.03 39.04 11.72 40.23 12.48L39.74 13.02C38.5 12.23 37.22 11.53 35.9 10.93C35.85 10.99 35.8 11.06 35.75 11.12C35.02 11.91 33.83 12.53 32.18 12.97L31.77 12.33C33.43 11.9 34.58 11.33 35.24 10.62C35.42 10.4 35.57 10.17 35.69 9.92H31.72V9.22H35.98C36.12 8.76 36.2 8.25 36.22 7.71V5.61ZM32.1 4.42H39.72V4.87C39.57 5.47 39.37 6.06 39.13 6.65L38.45 6.46C38.66 6.05 38.83 5.59 38.97 5.09H32.1V4.42ZM42.23 3.97C42.91 4.5 43.48 5.03 43.94 5.55L43.42 6.08C43.01 5.57 42.45 5.02 41.73 4.44L42.23 3.97ZM48.31 12.82C47.74 12.82 47.12 12.81 46.45 12.8C45.77 12.79 45.22 12.73 44.81 12.62C44.39 12.5 44.02 12.25 43.7 11.89C43.56 11.72 43.42 11.64 43.29 11.64C43.05 11.64 42.64 12.1 42.08 13.04L41.54 12.56C42.08 11.7 42.55 11.18 42.97 11V7.97H41.53V7.29H43.66V11.04C43.74 11.1 43.83 11.17 43.92 11.27C44.18 11.55 44.45 11.76 44.74 11.9C45.06 12.03 45.54 12.1 46.16 12.12C46.71 12.13 47.4 12.14 48.22 12.14C48.66 12.14 49.1 12.13 49.56 12.13C50.01 12.12 50.36 12.11 50.6 12.09L50.42 12.82H48.31ZM48.01 11.48H46.59L46.43 10.79C46.89 10.82 47.34 10.84 47.76 10.84C48.04 10.84 48.19 10.7 48.19 10.43V6.18H44.41V5.47H48.19V3.85H48.92V5.47H50.4V6.18H48.92V10.6C48.92 11.18 48.61 11.48 48.01 11.48ZM45.5 7.07C46.14 7.81 46.63 8.46 46.97 9.02L46.39 9.42C46.03 8.82 45.55 8.16 44.94 7.43L45.5 7.07Z" fill="#FF5500"/>
</svg>
