<svg width="12" height="12" viewBox="0 0 12 12" fill="none" xmlns="http://www.w3.org/2000/svg">
<path d="M6 0.299805C6.80404 0.299805 7.61281 0.407271 8.33789 0.551758C9.90332 0.863716 11.0925 2.09758 11.4111 3.67383C11.5743 4.48152 11.7002 5.37482 11.7002 6.20801C11.7002 7.00772 11.5848 7.81338 11.4316 8.52832C11.1194 9.98566 9.98473 11.1013 8.52246 11.4111C7.75198 11.5744 6.87325 11.7002 6 11.7002C5.08385 11.7002 4.16172 11.5614 3.36523 11.3867C1.96732 11.08 0.874888 10.0338 0.574219 8.64844C0.418543 7.931 0.299805 7.09261 0.299805 6.20801C0.299835 5.29821 0.425967 4.38332 0.588867 3.58105C0.897875 2.05936 2.05903 0.879641 3.57617 0.568359C4.32276 0.415196 5.16396 0.299805 6 0.299805Z" stroke="white" stroke-width="0.6"/>
<path d="M4.79785 2.77832L4.73926 2.9502C4.56159 3.44909 4.33737 3.93375 4.07031 4.39746L4.06348 9.5H3.44141L3.44238 5.34277L3.35156 5.45703L3.28809 5.53516C3.13779 5.71963 2.97028 5.90901 2.75586 6.14062L2.7207 6.17871L2.51855 5.51562L2.5 5.53711C3.23671 4.70825 3.79059 3.74094 4.16016 2.64062L4.20605 2.5L4.79785 2.77832ZM7.14746 2.57227V3.95508L7.19824 4.00586H9.05957V4.60156H7.72559L7.75098 4.66992L7.81055 4.82812C8.28418 6.07645 8.7578 6.91364 9.44434 7.6084L9.5 7.66309L9.08398 8.23242C8.19513 7.16623 7.58501 6.20784 7.24707 5.22754L7.14746 4.94043V9.49219H6.54102V4.92871L6.44238 5.24414L6.39258 5.39453C6.0795 6.30163 5.50492 7.24952 4.75098 8.18262L4.66895 8.28223L4.30762 7.6875C4.30762 7.6875 5.59962 6.14131 5.9707 4.66992L5.99414 4.60156H4.8125V4.00586H6.49023L6.54102 3.95508V2.57227H7.14746Z" fill="white"/>
</svg>
