<svg width="20" height="20" viewBox="0 0 20 20" fill="none" xmlns="http://www.w3.org/2000/svg">
<rect opacity="0.01" width="20" height="20" fill="white"/>
<path d="M10 1.5C10.5586 1.5 11.1171 1.52643 11.6757 1.57929L12.2343 1.64066C15.3352 2.03083 17.8017 4.42928 18.2785 7.518C18.4261 8.4745 18.5 9.40021 18.5 10.2951C18.5 10.9426 18.4613 11.59 18.384 12.2375C18.0034 15.4087 15.5248 17.9205 12.3588 18.3428C11.5725 18.4476 10.7863 18.5 10 18.5C9.40684 18.5 8.81368 18.4702 8.22052 18.4106L7.6273 18.3415C4.40943 17.912 1.90912 15.3264 1.58777 12.096C1.52928 11.5079 1.5 10.9076 1.5 10.2951C1.5 9.40405 1.56199 8.51297 1.68596 7.62188C2.12228 4.497 4.59494 2.04997 7.72425 1.64658C8.4828 1.54875 9.2414 1.5 10 1.5ZM10 2.75C9.29425 2.75 8.58906 2.79539 7.88406 2.88632C5.31359 3.21767 3.28238 5.22774 2.92403 7.79413C2.80798 8.62828 2.75 9.46182 2.75 10.2951C2.75 10.8664 2.77725 11.4254 2.83163 11.9722C3.0956 14.6258 5.14942 16.7497 7.77187 17.0999L8.3455 17.1669C8.89718 17.2223 9.44863 17.25 10 17.25C10.7312 17.25 11.4622 17.2013 12.1935 17.1037C14.7941 16.7569 16.8303 14.6936 17.1428 12.0892C17.2143 11.4909 17.25 10.893 17.25 10.2951C17.25 9.46552 17.1812 8.60346 17.0431 7.7087C16.6515 5.17154 14.6254 3.20138 12.0978 2.88318L11.558 2.82373C11.0385 2.77457 10.5192 2.75 10 2.75ZM12.5 8.73171C12.8452 8.73171 13.125 9.01154 13.125 9.35671C13.125 9.70189 12.8452 9.98171 12.5 9.98171L10.625 9.981V11.731L12.5 11.7317C12.8452 11.7317 13.125 12.0115 13.125 12.3567C13.125 12.7019 12.8452 12.9817 12.5 12.9817L10.625 12.981V14.4976C10.625 14.8428 10.3452 15.1226 10 15.1226C9.65482 15.1226 9.375 14.8428 9.375 14.4976V12.981L7.5 12.9817C7.15482 12.9817 6.875 12.7019 6.875 12.3567C6.875 12.0115 7.15482 11.7317 7.5 11.7317L9.375 11.731V9.981L7.5 9.98171C7.15482 9.98171 6.875 9.70189 6.875 9.35671C6.875 9.01154 7.15482 8.73171 7.5 8.73171H12.5ZM8.32062 5.25806L9.38128 6.31872C9.72299 6.66043 10.277 6.66043 10.6187 6.31872L11.6794 5.25806C11.9235 5.01398 12.3192 5.01398 12.5633 5.25806C12.8073 5.50214 12.8073 5.89786 12.5633 6.14194L11.5026 7.2026C10.6727 8.03247 9.32726 8.03247 8.4974 7.2026L7.43674 6.14194C7.19266 5.89786 7.19266 5.50214 7.43674 5.25806C7.68082 5.01398 8.07654 5.01398 8.32062 5.25806Z" fill="#111111"/>
</svg>
