<svg width="20" height="20" viewBox="0 0 20 20" fill="none" xmlns="http://www.w3.org/2000/svg">
<rect opacity="0.01" width="20" height="20" fill="white"/>
<path d="M10.0002 1C11.5704 1 13.0759 1.07973 14.5168 1.23919C15.2645 1.32319 15.969 1.63275 16.5364 2.12701C18.0771 3.46935 18.2379 5.80653 16.8955 7.34723L14.5872 10L16.8955 12.6528C18.2379 14.1935 18.0771 16.5307 16.5364 17.873C15.969 18.3673 15.2645 18.6768 14.5168 18.7608C13.0759 18.9203 11.5704 19 10.0002 19C8.43 19 6.92446 18.9203 5.48358 18.7608C3.45282 18.5334 1.99049 16.7032 2.21743 14.6723C2.30099 13.9246 2.61055 13.2201 3.10483 12.6528L5.41221 10L3.10483 7.34723C2.66547 6.84297 2.37206 6.23029 2.2536 5.57518L2.21743 5.32765C1.99049 3.29684 3.45282 1.46657 5.48358 1.23919C6.92446 1.07973 8.43 1 10.0002 1ZM10.0002 2.25C8.47506 2.25 7.01535 2.3273 5.62267 2.48143C4.27777 2.63201 3.30943 3.8441 3.4543 5.14693L3.48365 5.35274C3.56222 5.78725 3.75686 6.19277 4.04798 6.52688L6.35536 9.17965C6.7645 9.65003 6.7645 10.35 6.35536 10.8204L4.04728 13.4739C3.72 13.8495 3.51503 14.316 3.4597 14.8112C3.30943 16.1559 4.27777 17.368 5.62108 17.5184C7.01535 17.6727 8.47506 17.75 10.0002 17.75C11.5253 17.75 12.985 17.6727 14.3773 17.5186C14.8729 17.4629 15.3396 17.2578 15.7152 16.9305C16.7354 16.0417 16.8419 14.4941 15.9526 13.4733L13.6442 10.8205C13.2349 10.3501 13.2349 9.6499 13.6442 9.17946L15.9531 6.5261C16.8419 5.50591 16.7354 3.95833 15.7152 3.06948C15.3396 2.7422 14.8729 2.53705 14.3793 2.48161C12.985 2.3273 11.5253 2.25 10.0002 2.25ZM11.7286 5.075C12.0738 5.075 12.3536 5.35482 12.3536 5.7C12.3536 6.04518 12.0738 6.325 11.7286 6.325H8.22858C7.88341 6.325 7.60358 6.04518 7.60358 5.7C7.60358 5.35482 7.88341 5.075 8.22858 5.075H11.7286Z" fill="#111111"/>
</svg>
