<svg width="12" height="12" viewBox="0 0 12 12" fill="none" xmlns="http://www.w3.org/2000/svg">
<path d="M8 0.5C9.933 0.5 11.5 2.067 11.5 4V8C11.5 9.933 9.933 11.5 8 11.5H4C2.067 11.5 0.5 9.933 0.5 8V4C0.5 2.067 2.067 0.5 4 0.5H8ZM8 1H4C2.34315 1 1 2.34315 1 4V8C1 9.65685 2.34315 11 4 11H8C9.65685 11 11 9.65685 11 8V4C11 2.34315 9.65685 1 8 1Z" fill="#949494"/>
<path d="M4.99783 7.99348C4.29176 8.25217 3.4718 8.46522 2.53796 8.61739L2.61388 9.18804C3.50217 9.02065 4.29935 8.80761 4.99783 8.54891V7.99348ZM3.78308 2.5C3.47939 3.38261 3.13015 4.1587 2.72017 4.84348C2.65944 4.94239 2.58351 5.01087 2.5 5.0413L2.62907 5.54348C3.04664 5.48261 3.46421 5.40652 3.88178 5.33043C3.48698 6.07609 3.15293 6.60109 2.87202 6.91304C2.80369 6.97391 2.72017 7.02717 2.62907 7.06522L2.77332 7.56739C3.38069 7.47609 4.02603 7.30109 4.69414 7.05V6.55543C4.26898 6.72283 3.83623 6.85978 3.41106 6.9663C3.85141 6.38804 4.40564 5.40652 5.08135 4.02174L4.60304 3.84674C4.43601 4.19674 4.27657 4.53152 4.12473 4.84348C3.79826 4.90435 3.4718 4.95761 3.14534 4.99565C3.54013 4.41739 3.91974 3.65652 4.29176 2.69783L3.78308 2.5ZM6.55423 6.59348L6.27332 7.01196C6.98698 7.225 7.67787 7.50652 8.36117 7.87174L8.63449 7.45326C8.01193 7.11848 7.31345 6.82935 6.55423 6.59348ZM5.63557 7.88696L5.33189 8.34348C6.47072 8.625 7.58677 9.01304 8.67245 9.5L8.96095 9.04348C7.95879 8.58696 6.85033 8.20652 5.63557 7.88696ZM6.35683 2.5C6.12147 3.35217 5.67354 4.08261 5.02061 4.67609L5.36226 5.125C5.59002 4.91196 5.8026 4.6837 5.99241 4.44022C6.26573 4.75978 6.56941 5.06413 6.89588 5.33804C6.30369 5.80978 5.62798 6.16739 4.85358 6.41087L5.11931 6.89783C5.95445 6.6087 6.6833 6.20543 7.31345 5.68043C7.88286 6.12174 8.52061 6.50217 9.21909 6.80652L9.5 6.31196C8.83189 6.03804 8.2321 5.70326 7.69306 5.32283C8.14859 4.8587 8.53579 4.31848 8.86226 3.69457V3.24565H6.6833C6.76681 3.03261 6.84273 2.80435 6.91106 2.56848L6.35683 2.5ZM7.27549 5.00326C6.91106 4.70652 6.57701 4.38696 6.28091 4.03696C6.32646 3.95326 6.37961 3.86957 6.43275 3.77826H8.2397C7.95879 4.23478 7.63991 4.64565 7.27549 5.00326Z" fill="#949494"/>
</svg>
