<svg width="18" height="18" viewBox="0 0 18 18" fill="none" xmlns="http://www.w3.org/2000/svg">
<rect opacity="0.01" width="18" height="18" fill="white"/>
<path d="M11.9625 9.83869C13.7698 9.83869 15.2355 11.3039 15.236 13.1111C15.236 13.7341 15.0616 14.3166 14.7594 14.8123L15.8912 15.9442C16.1939 16.2468 16.1938 16.7372 15.8912 17.0399C15.5885 17.3426 15.0982 17.3426 14.7955 17.0399L13.6637 15.908C13.1679 16.2103 12.5856 16.3846 11.9625 16.3846C10.1552 16.3843 8.69006 14.9186 8.69006 13.1111C8.6905 11.3041 10.1554 9.83893 11.9625 9.83869ZM8.99963 0.81818C10.2341 0.81818 11.4002 0.95631 12.4967 1.23224C14.4648 1.72938 15.925 3.38602 16.1696 5.40119C16.2992 6.47108 16.3639 7.67088 16.3639 8.99982C16.3639 9.91921 16.3311 10.7766 16.2692 11.5721C16.0017 10.8243 15.5448 10.1672 14.9567 9.65705C14.9574 9.61779 14.959 9.57841 14.9596 9.53888L14.9635 8.99982C14.9635 7.72422 14.9014 6.58049 14.7789 5.57013C14.6041 4.12956 13.561 2.94554 12.1539 2.59064L12.0983 2.57599L11.7301 2.49103C11.0145 2.33956 10.263 2.25077 9.4762 2.22541L8.99963 2.21857C7.89742 2.2186 6.86359 2.33826 5.89612 2.57697L5.88928 2.57892L5.84631 2.59064C4.50312 2.92938 3.49085 4.024 3.24963 5.3758L3.22034 5.57013C3.09799 6.58093 3.03675 7.72467 3.03674 8.99982C3.03674 10.2753 3.09791 11.4192 3.22034 12.4295C3.3951 13.8702 4.43916 15.0551 5.84631 15.41L5.901 15.4236L6.27014 15.5086C6.89758 15.6414 7.55277 15.7227 8.23499 15.7586C8.64998 16.342 9.19815 16.8233 9.83557 17.159C9.56049 17.1734 9.28187 17.1815 8.99963 17.1815C7.91961 17.1814 6.89202 17.0763 5.9176 16.8651L5.50354 16.7674C3.53505 16.2709 2.07517 14.6138 1.83069 12.5985C1.70101 11.5285 1.63635 10.3288 1.63635 8.99982C1.63636 7.86074 1.68377 6.81676 1.77893 5.86798L1.83069 5.40119C2.0753 3.38595 3.53513 1.72868 5.50354 1.23224C6.59978 0.955722 7.7653 0.818207 8.99963 0.81818ZM11.9625 11.2391C10.9286 11.2393 10.0909 12.0773 10.0905 13.1111C10.0905 14.1454 10.9284 14.9839 11.9625 14.9842C12.9969 14.9842 13.8356 14.1455 13.8356 13.1111C13.8351 12.0771 12.9966 11.2391 11.9625 11.2391ZM11.0465 6.3006C11.433 6.3006 11.7465 6.61339 11.7467 6.99982C11.7467 7.38642 11.4331 7.70002 11.0465 7.70002H6.94592C6.55954 7.69976 6.2467 7.38626 6.2467 6.99982C6.2469 6.61354 6.55966 6.30086 6.94592 6.3006H11.0465Z" fill="#111111"/>
<rect opacity="0.01" width="18" height="18" fill="white"/>
</svg>
