<svg width="13" height="13" viewBox="0 0 13 13" fill="none" xmlns="http://www.w3.org/2000/svg">
<path fill-rule="evenodd" clip-rule="evenodd" d="M6.50001 0.349976C7.28497 0.349976 8.06992 0.420052 8.85478 0.560153C9.80238 0.76054 10.5685 1.13557 11.1418 1.64428C11.7308 2.16694 12.113 2.82985 12.2802 3.57758C12.5264 4.67821 12.65 5.72755 12.65 6.72567C12.65 7.46517 12.5821 8.20467 12.4464 8.94407C12.2442 9.87573 11.8684 10.6313 11.3601 11.1975C10.8383 11.7788 10.1778 12.1575 9.43362 12.3233C8.45583 12.5412 7.47792 12.65 6.50001 12.65C5.67658 12.65 4.85317 12.5729 4.03593 12.42L3.53512 12.3169C2.797 12.1511 2.14164 11.7769 1.63262 11.2588C1.1236 10.7408 0.760917 10.0789 0.608137 9.33801C0.435976 8.50311 0.350006 7.63233 0.350006 6.72567C0.350006 5.68337 0.463645 4.64109 0.690629 3.59928C0.85209 2.86314 1.22075 2.20782 1.7332 1.69668C2.24555 1.18565 2.90162 0.818758 3.63785 0.659411C4.59203 0.45349 5.54601 0.349976 6.50001 0.349976Z" stroke="#BBBBBB" stroke-width="0.7"/>
<path d="M5.35625 5.11383V5.067C5.35625 4.74231 5.4702 4.46758 5.6981 4.2428C5.92601 4.01801 6.19918 3.90562 6.51763 3.90562C6.84232 3.90562 7.11705 4.01801 7.34184 4.2428C7.56662 4.46758 7.67901 4.74231 7.67901 5.067C7.67901 5.34174 7.59472 5.58213 7.42613 5.78818L4.75682 9.10375V9.75H8.2878V9.10375H5.59976L7.95999 6.15346C8.20351 5.84126 8.32526 5.47911 8.32526 5.067C8.32526 4.73607 8.24409 4.43168 8.08175 4.15382C7.9194 3.87596 7.70087 3.65586 7.42613 3.49352C7.15139 3.33117 6.84856 3.25 6.51763 3.25C6.1867 3.25 5.88386 3.33117 5.60913 3.49352C5.33439 3.65586 5.11585 3.87596 4.95351 4.15382C4.79116 4.43168 4.70999 4.73607 4.70999 5.067V5.11383H5.35625Z" fill="#BBBBBB" stroke="#BBBBBB" stroke-width="0.15"/>
</svg>
