<svg width="18" height="18" viewBox="0 0 18 18" fill="none" xmlns="http://www.w3.org/2000/svg">
<rect opacity="0.01" width="18" height="18" fill="white"/>
<path d="M12.3164 6.5C15.4554 6.50029 18 8.69197 18 11.3955C18 12.5267 17.5548 13.5685 16.8066 14.3975L17.0488 15.6816C17.0743 15.832 17.0691 15.9865 17.0332 16.1348C16.8859 16.7412 16.2714 17.114 15.6611 16.9678L13.29 16.2197C12.9738 16.2668 12.6483 16.291 12.3164 16.291C9.1771 16.291 6.63184 14.0992 6.63184 11.3955C6.63184 8.6918 9.1771 6.5 12.3164 6.5ZM12.3164 7.90039C9.90773 7.90039 8.03223 9.5153 8.03223 11.3955C8.03223 13.2757 9.90773 14.8906 12.3164 14.8906C12.5762 14.8906 12.8329 14.8723 13.084 14.835C13.2942 14.8037 13.5093 14.8208 13.7119 14.8848L15.585 15.4785L15.4307 14.6572C15.3586 14.2752 15.4491 13.8828 15.6758 13.5723L15.7676 13.46C16.3104 12.8585 16.6006 12.1422 16.6006 11.3955C16.6006 9.51546 14.7248 7.90067 12.3164 7.90039ZM7.3418 1.5C10.4186 1.5 13.0534 3.07608 14.1455 5.31152C13.6774 5.20099 13.1912 5.13167 12.6924 5.1084L12.3613 5.10156C11.3159 3.79232 9.47696 2.90039 7.3418 2.90039C4.00933 2.90052 1.40039 5.07335 1.40039 7.61426C1.40045 8.48339 1.70001 9.32133 2.26855 10.0586C2.36826 10.1879 2.4756 10.3139 2.59082 10.4355C2.88397 10.745 3.02022 11.1707 2.96094 11.5928L2.71875 13.3096C2.70273 13.4677 2.82211 13.613 2.99121 13.6299C3.01627 13.6324 3.04164 13.6314 3.06641 13.6279L5.25684 12.4863L5.33008 12.4521C5.41865 12.9225 5.56487 13.374 5.7627 13.8008L3.5791 14.9385C3.34598 15.0183 3.09791 15.0469 2.85254 15.0225C1.9155 14.9289 1.23197 14.0993 1.32617 13.1689L1.5752 11.3984C1.42768 11.2427 1.28826 11.0805 1.15918 10.9131C0.425414 9.96145 6.4691e-05 8.82915 0 7.61426C0 4.23768 3.28701 1.50014 7.3418 1.5ZM6.06348 5.2627C6.79567 5.26284 7.38938 5.74661 7.38965 6.34375C7.38965 6.94107 6.79583 7.42564 6.06348 7.42578C5.33097 7.42578 4.7373 6.94116 4.7373 6.34375C4.73757 5.74653 5.33114 5.2627 6.06348 5.2627Z" fill="#111111"/>
<rect opacity="0.01" width="18" height="18" fill="white"/>
</svg>
