<svg width="67" height="22" viewBox="0 0 67 22" fill="none" xmlns="http://www.w3.org/2000/svg">
<g clip-path="url(#clip0_214_6694)">
<path fill-rule="evenodd" clip-rule="evenodd" d="M0 7C0 4.79086 1.79086 3 4 3H13.171C13.7018 3 14.2108 2.78903 14.5859 2.41355L16.2904 0.70744C16.6807 0.316731 17.3139 0.316434 17.7046 0.706774L19.4143 2.41488C19.7893 2.78954 20.2978 3 20.8279 3H63C65.2091 3 67 4.79086 67 7V18C67 20.2091 65.2091 22 63 22H4C1.79086 22 0 20.2091 0 18L0 7Z" fill="white" stroke="#FFC899" stroke-width="0.5"/>
<path opacity="0.360073" fill-rule="evenodd" clip-rule="evenodd" d="M42 3L63 3C65.2091 3 67 4.79086 67 7V18C67 20.2091 65.2091 22 63 22H42L42 3Z" fill="#FFC899"/>
<path d="M13.164 12.812H5.76V16.016C5.76 16.448 5.976 16.664 6.408 16.664H12.372C12.564 16.664 12.744 16.592 12.912 16.448C13.08 16.28 13.188 15.572 13.26 14.348L14.484 14.732C14.328 16.268 14.124 17.168 13.884 17.432C13.596 17.696 13.2 17.84 12.72 17.864H6.048C5.016 17.864 4.512 17.324 4.512 16.244V10.028H5.76V11.612H11.892V8.876H4.008V7.676H13.164V12.812ZM17.328 13.676C16.86 14.132 16.356 14.576 15.804 15.008L15.42 13.736C17.04 12.464 18.144 11.216 18.72 10.016H15.744V8.876H17.46C17.268 8.384 17.064 7.904 16.836 7.436L18.048 7.112C18.324 7.76 18.54 8.348 18.708 8.876H19.968V9.896C19.656 10.724 19.188 11.54 18.552 12.332V12.38L19.056 12.716C19.404 12.464 19.74 12.116 20.076 11.66L20.784 12.368C20.496 12.752 20.184 13.076 19.848 13.328C20.16 13.58 20.46 13.844 20.748 14.12L20.064 15.2C19.56 14.564 19.056 14.012 18.552 13.556V18.26H17.328V13.676ZM22.092 7.16H23.328V11.084C24.396 11.756 25.488 12.512 26.592 13.376L25.848 14.48C24.852 13.592 24.012 12.884 23.328 12.38V18.248H22.092V7.16ZM34.68 7.148H35.916V9.188H38.508V10.364H35.916V12.356H38.088V18.212H36.888V17.792H34.236V18.212H33.072V12.356H34.68V7.148ZM34.236 16.616H36.888V13.52H34.236V16.616ZM32.436 7.52V15.212H31.332V8.672H28.98V15.212H27.852V7.52H32.436ZM29.604 9.38H30.684V13.316C30.636 14.66 30.42 15.74 30.036 16.544C29.652 17.288 29.028 17.864 28.164 18.272L27.48 17.216C28.296 16.82 28.848 16.34 29.136 15.764C29.412 15.128 29.568 14.312 29.604 13.316V9.38ZM31.116 15.488C31.728 16.1 32.256 16.7 32.688 17.288L31.776 18.188C31.428 17.588 30.936 16.952 30.3 16.268L31.116 15.488Z" fill="#FF5F26"/>
<path d="M51.63 7.08H53.925L51.63 11.415H53.49V13.08H50.76V14.4H53.49V16.035H50.76V18.3H48.615V16.035H45.9V14.4H48.615V13.08H45.9V11.415H47.73L45.435 7.08H47.73L49.695 11.31L51.63 7.08ZM62.67 18.3H55.125V16.86L59.085 12.555C59.435 12.165 59.695 11.825 59.865 11.535C60.105 11.115 60.23 10.705 60.24 10.305C60.25 9.855 60.08 9.47 59.73 9.15C59.39 8.84 58.995 8.69 58.545 8.7C57.605 8.73 56.895 9.245 56.415 10.245L54.945 9.12C55.355 8.45 55.865 7.92 56.475 7.53C57.125 7.11 57.825 6.9 58.575 6.9C59.565 6.91 60.445 7.215 61.215 7.815C61.975 8.415 62.37 9.23 62.4 10.26C62.4 11.34 61.89 12.415 60.87 13.485L57.96 16.575H62.67V18.3Z" fill="#FF5F26"/>
</g>
<defs>
<clipPath id="clip0_214_6694">
<rect width="67" height="22" fill="white"/>
</clipPath>
</defs>
</svg>
