<svg width="47" height="14" viewBox="0 0 47 14" fill="none" xmlns="http://www.w3.org/2000/svg">
<path d="M17.2757 5.79895H15.7083V7.21204H17.2757V8.78625H15.7083V10.0792C15.7083 10.949 16.4114 11.6564 17.2757 11.6564V13.2316C15.5472 13.2316 14.1419 11.817 14.1419 10.0792V8.78625H12.7171V7.21204H14.1419V5.79895H12.7171V4.22375H17.2757V5.79895ZM6.64095 7.26575C6.72059 7.14691 6.89554 7.14676 6.97494 7.26575C6.97594 7.26725 6.97689 7.26917 6.97787 7.27063C7.38884 7.88345 7.91361 8.41004 8.52377 8.82239C8.52715 8.82468 8.53085 8.82678 8.53451 8.82922C8.64748 8.90461 8.64707 9.07066 8.53451 9.14661C7.91538 9.56368 7.38302 10.0983 6.9681 10.7208C6.89073 10.8364 6.72262 10.8381 6.64779 10.7208C6.64288 10.7131 6.63921 10.7079 6.63802 10.7062C6.2298 10.0979 5.70938 9.57429 5.10482 9.16321C4.98202 9.0796 4.97986 8.89792 5.10287 8.81458C5.11143 8.80877 5.11977 8.80314 5.12728 8.79797C5.72383 8.38788 6.23697 7.86849 6.64095 7.26575ZM13.5492 0.829224C13.5492 1.55272 14.1343 2.14151 14.8548 2.14172C15.5755 2.14172 16.1615 1.55285 16.1615 0.829224H17.7279C17.7279 2.4226 16.4389 3.7179 14.8548 3.7179C13.2709 3.71768 11.9818 2.42247 11.9818 0.829224H13.5492Z" fill="#FF7700"/>
<path d="M12.0057 0.829834C11.9291 1.46423 11.6414 2.61423 10.5526 3.70093C10.1296 4.12262 9.63154 4.49163 9.06238 4.80835C10.4609 5.50566 11.4343 6.94315 11.4344 8.61597V9.35913C11.4344 11.7093 9.53186 13.6226 7.19421 13.6228H6.42273C4.08404 13.6228 2.18152 11.7094 2.18152 9.35913V8.61597C2.18161 7.72101 2.46073 6.89062 2.93152 6.20386C2.64441 6.21348 2.36253 6.22826 2.06238 6.22827C1.5419 6.22827 0.995073 6.20919 0.435425 6.17944V4.60229C5.84217 4.90154 8.30108 3.7007 9.40906 2.62183C9.48383 2.54927 9.53418 2.47661 9.59851 2.40405H8.23718V0.829834H12.0057ZM20.7616 3.23706H23.2225V4.81226H20.7616V5.79468H23.2225V7.36987H20.7616V8.30933C20.7616 8.59804 20.8112 8.87344 20.8817 9.1394C21.4987 8.3941 22.3394 7.95896 23.2225 7.95874V9.53394C22.779 9.53417 22.3532 9.7719 22.0253 10.2029L21.7137 10.613C22.2994 11.2017 23.109 11.565 23.9999 11.5652C25.2871 11.5652 26.3338 10.5136 26.3339 9.21948V4.27905C25.6855 4.62107 24.9136 4.81226 23.9999 4.81226V3.23608C24.958 3.23608 25.6762 2.99376 26.1366 2.5144C26.7809 1.84223 26.7548 0.875508 26.7548 0.863037H28.3192C28.3218 0.913078 28.3589 1.74411 27.9003 2.68726V9.21948C27.9002 11.3816 26.1506 13.1404 23.9999 13.1404C22.7469 13.1402 21.6081 12.6526 20.7518 11.8601C20.0139 12.7312 19.0163 13.2311 17.9764 13.2312V11.656C18.6029 11.6559 19.1981 11.3266 19.6532 10.7292L19.7635 10.5847C19.4015 9.90576 19.1952 9.13088 19.1952 8.30933V7.36987H17.9764V5.79468H19.1952V4.81226H17.9764V3.23706H19.1952V0.829834H20.7616V3.23706ZM41.8573 7.85425H45.1171C45.8299 7.85425 46.411 8.43045 46.411 9.13745V10.7693C46.411 12.0196 45.3759 13.0367 44.1044 13.0369H42.9735V11.4607H44.1044C44.5124 11.4606 44.8436 11.1507 44.8436 10.7693V9.43042H41.8055C41.5495 11.4594 39.8997 13.0369 37.8876 13.0369H36.3065V11.4607H37.8876C39.0407 11.4607 40.0037 10.5887 40.2362 9.43042H36.5214V7.85425H40.2909V6.8855H41.8573V7.85425ZM35.1864 2.45679C34.4815 2.52324 33.5511 2.56295 32.5897 2.58569V5.90796H35.2958V7.48218H32.5897V11.4607H35.5233V13.0359H26.7499C27.3512 12.6571 27.8447 12.0757 28.205 11.4607H31.1063V7.48218H28.6971V5.90796H31.1063V2.61206C30.6356 2.61556 30.181 2.61792 29.7694 2.61792C29.3215 2.61792 29.0734 2.61576 28.7567 2.61401C29.0483 1.8843 29.0728 1.23408 29.0702 1.03979C30.6923 1.04767 33.6248 1.03939 35.1864 0.876709V2.45679ZM6.42273 5.92944C4.94847 5.92944 3.74816 7.13479 3.74792 8.61597V9.35913C3.74792 10.8414 4.94832 12.0476 6.42273 12.0476H7.19421C8.66846 12.0474 9.86804 10.8413 9.86804 9.35913V8.61597C9.8678 7.13491 8.66831 5.92964 7.19421 5.92944H6.42273ZM39.038 0.919678C39.0406 0.968724 39.0597 1.06676 39.038 1.31128H45.7489C45.9339 1.31157 46.068 1.48641 46.0155 1.66382C45.9467 1.89569 45.8551 2.17914 45.7841 2.30249C45.6912 2.47832 44.9192 3.87182 43.2675 5.08667C43.9774 5.23794 44.8034 5.33369 45.7889 5.33374L46.7733 5.323L46.7889 6.89917L45.7968 6.90894C43.9154 6.90885 42.478 6.60795 41.3719 6.16089C40.4095 6.565 39.2774 6.85372 37.953 6.90796L36.0712 6.90894V5.33374H37.9208C38.5123 5.30838 39.0577 5.22588 39.5614 5.10522C38.8385 4.50775 38.4056 3.86589 38.1454 3.33667C37.6328 3.84491 36.9313 4.12803 36.0985 4.1394L36.076 2.56323C36.5233 2.55798 36.8516 2.43846 37.077 2.198C37.4434 1.80872 37.4986 1.14296 37.4882 0.919678H39.038ZM39.744 2.98218C40.0408 3.43793 40.5432 3.97279 41.3749 4.42065C42.1919 3.98678 42.8283 3.46419 43.3026 2.98218H39.744ZM4.36121 0.892334C4.36033 1.06491 4.29141 2.61878 2.36804 4.05542L1.43347 2.79272C2.72524 1.82639 2.7931 0.90054 2.79578 0.861084L4.36121 0.892334ZM7.33386 0.437256V3.47437C6.84384 3.65899 6.27248 3.82143 5.60925 3.95093V0.437256H7.33386ZM23.2235 2.61011H21.3973C21.3973 1.58299 22.2106 0.758287 23.2235 0.720459V2.61011Z" fill="#4B1600"/>
</svg>
