<svg width="21" height="45" viewBox="0 0 21 45" fill="none" xmlns="http://www.w3.org/2000/svg">
<rect x="19.9979" width="1" height="48" transform="rotate(24 19.9979 0)" fill="url(#paint0_linear_214_6672)"/>
<rect x="0.25" y="14.8785" width="20.5" height="13.5" rx="6.75" fill="white" stroke="#CCD6E5" stroke-width="0.5"/>
<path d="M14.04 17.1285C16.3406 17.1287 17.7412 18.0384 17.7412 19.8589C17.7412 20.1892 17.7213 20.3717 17.7207 20.3775H16.207C16.2086 20.3787 16.21 20.3795 16.21 20.3795H15.0098C15.0263 20.3744 15.3679 20.2676 15.3447 20.024C15.2572 19.7311 15.1275 19.5288 14.9639 19.4205C14.7486 19.2729 14.3734 19.1959 13.8262 19.1959C13.3564 19.1959 13.0168 19.2577 12.793 19.3843C12.5779 19.4874 12.483 19.6276 12.4619 19.8687C12.4489 20.0193 12.5918 20.1882 12.9424 20.3443L13.1602 20.4273C13.3771 20.5026 13.682 20.5936 14.0703 20.6988L14.5762 20.8316C15.5753 21.078 16.2949 21.3563 16.7451 21.6812C17.4589 22.1606 17.8359 22.8638 17.7207 23.7144C17.4597 25.6403 16.0296 26.7211 13.3193 26.7213C11.5345 26.7213 10.1705 26.2463 9.53418 25.1968L10.5625 22.94C10.8748 23.3637 11.5339 24.1571 12.2412 24.3853C12.4691 24.5564 12.8691 24.6538 13.4326 24.6539C14.632 24.6538 15.1969 24.3647 15.2422 23.8482C15.2672 23.5612 15.1035 23.3274 14.6992 23.1304C14.5453 23.05 14.249 22.9556 13.75 22.8277L13.0986 22.6685C12.1397 22.4439 11.449 22.2004 11.0205 21.9361L13.1895 17.1793C13.4584 17.146 13.742 17.1285 14.04 17.1285Z" fill="url(#paint1_linear_214_6672)"/>
<path d="M7.18457 23.0383L9.2627 18.0657C9.40839 17.6902 8.39941 17.3616 8.39941 17.3616H12.1816L8.01367 26.4875H5.75391L3.34668 17.9583C3.16937 17.5987 2.5 17.3616 2.5 17.3616H5.80273L7.18457 23.0383Z" fill="url(#paint2_linear_214_6672)"/>
<defs>
<linearGradient id="paint0_linear_214_6672" x1="20.003" y1="0" x2="20.003" y2="47.5035" gradientUnits="userSpaceOnUse">
<stop stop-color="#DCE4ED" stop-opacity="0.01"/>
<stop offset="0.32805" stop-color="#CCD6E5"/>
<stop offset="0.64852" stop-color="#CCD6E5"/>
<stop offset="1" stop-color="#DCE4ED" stop-opacity="0.01"/>
</linearGradient>
<linearGradient id="paint1_linear_214_6672" x1="11.1651" y1="15.4088" x2="7.30594" y2="24.6174" gradientUnits="userSpaceOnUse">
<stop stop-color="#FF7B7B"/>
<stop offset="1" stop-color="#FF5151"/>
</linearGradient>
<linearGradient id="paint2_linear_214_6672" x1="4.97146" y1="15.3647" x2="1.13828" y2="24.6572" gradientUnits="userSpaceOnUse">
<stop stop-color="#35BCFF"/>
<stop offset="1" stop-color="#0087F7"/>
</linearGradient>
</defs>
</svg>
