<svg width="103" height="20" viewBox="0 0 103 20" fill="none" xmlns="http://www.w3.org/2000/svg">
<g clip-path="url(#clip0_214_7329)">
<path fill-rule="evenodd" clip-rule="evenodd" d="M19.5 10C19.5 4.47715 23.9772 0 29.5 0H73.5C79.0228 0 83.5 4.47715 83.5 10C83.5 15.5228 79.0228 20 73.5 20H29.5C23.9772 20 19.5 15.5228 19.5 10Z" stroke="#CCCCCC" stroke-width="0.5"/>
<path d="M34.892 11.432H32.66V10.328H38.288V11.432H36.044V13.724H38.84V14.84H32.12V13.724H34.892V11.432ZM35.888 8.096C35.024 8.816 33.956 9.416 32.684 9.908L31.964 8.972C34.112 8.192 35.612 7.1 36.452 5.696H32.54V4.604H37.82V5.504C37.532 6.176 37.136 6.8 36.632 7.364C37.568 7.952 38.36 8.54 39.032 9.128L38.192 9.968C37.628 9.368 36.86 8.744 35.888 8.096ZM32.048 12.404V13.46C30.896 14.06 29.612 14.54 28.172 14.9L28.016 13.796C29.552 13.448 30.896 12.98 32.048 12.404ZM29.972 4.1L31.064 4.532C30.488 5.972 29.912 7.148 29.336 8.036C29.78 7.988 30.224 7.928 30.668 7.868C30.884 7.46 31.1 7.028 31.328 6.584L32.372 6.968C31.376 8.828 30.536 10.184 29.84 11.048C30.572 10.88 31.316 10.64 32.072 10.352V11.384C30.8 11.852 29.6 12.164 28.448 12.332L28.148 11.3C28.352 11.216 28.52 11.108 28.664 10.976C29.048 10.58 29.516 9.884 30.092 8.9L28.28 9.152L28.004 8.108C28.172 8.036 28.328 7.892 28.472 7.688C29.048 6.608 29.54 5.42 29.972 4.1ZM42.26 4.076L43.316 4.568C43.052 5.444 42.728 6.272 42.32 7.064V15.248H41.18V8.936C40.88 9.344 40.568 9.74 40.244 10.124L39.86 8.912C40.94 7.52 41.744 5.912 42.26 4.076ZM47 4.076C47.096 4.364 47.204 4.688 47.312 5.048H50.66V6.056H43.196V5.048H46.172C46.076 4.772 45.968 4.508 45.848 4.268L47 4.076ZM43.916 6.584H49.772V8.984H43.916V6.584ZM48.668 8.132V7.424H45.032V8.132H48.668ZM50.72 9.512V11.708H50.024V12.344H47.54V14.036C47.54 14.78 47.132 15.152 46.34 15.152H45.008L44.756 14.048C45.164 14.084 45.56 14.108 45.944 14.108C46.232 14.108 46.388 13.988 46.388 13.76V12.344H43.868V11.708H43.028V9.512H50.72ZM44.12 11.384H49.628V10.496H44.12V11.384ZM53.216 8.912C52.904 9.32 52.58 9.728 52.22 10.136L51.848 8.912C52.952 7.52 53.78 5.888 54.32 4.04L55.388 4.544C55.112 5.432 54.764 6.296 54.332 7.124V15.26H53.216V8.912ZM55.172 5.612H58.688C58.532 5.204 58.352 4.808 58.148 4.424L59.24 4.124C59.492 4.664 59.684 5.156 59.816 5.612H63.056V6.68H55.172V5.612ZM56.264 7.412H62.036V8.432H56.264V7.412ZM56.264 9.104H62.036V10.136H56.264V9.104ZM62.288 10.892V15.236H61.184V14.612H57.104V15.236H56V10.892H62.288ZM57.104 13.544H61.184V11.948H57.104V13.544ZM65.708 4.976H68.36C68.504 4.676 68.612 4.376 68.696 4.064L69.884 4.22C69.812 4.484 69.704 4.736 69.584 4.976H73.388V11.036H65.708V4.976ZM72.284 10.064V9.284H66.812V10.064H72.284ZM66.812 8.372H72.284V7.616H66.812V8.372ZM66.812 6.716H72.284V5.948H66.812V6.716ZM65.06 11.732L66.14 11.948C65.852 13.064 65.468 14.024 64.964 14.84L64.004 14.228C64.508 13.46 64.856 12.62 65.06 11.732ZM71.036 15.056H67.988C67.196 15.056 66.8 14.672 66.8 13.904V11.708H67.952V13.664C67.952 13.904 68.072 14.036 68.312 14.036H70.82C71.048 14.036 71.204 13.976 71.288 13.856C71.42 13.712 71.504 13.292 71.54 12.584L72.632 12.932C72.536 13.952 72.356 14.564 72.104 14.78C71.864 14.96 71.516 15.056 71.036 15.056ZM69.56 11.24C70.148 11.84 70.604 12.356 70.916 12.812L70.064 13.412C69.728 12.908 69.284 12.356 68.72 11.756L69.56 11.24ZM73.4 11.492C74.12 12.428 74.66 13.256 75.044 13.952L74.144 14.588C73.736 13.82 73.196 12.98 72.512 12.044L73.4 11.492Z" fill="#3263A6"/>
<path d="M84 10H102.5" stroke="url(#paint0_linear_214_7329)" stroke-linecap="square"/>
<path d="M19 10H0.5" stroke="url(#paint1_linear_214_7329)" stroke-linecap="square"/>
</g>
<defs>
<linearGradient id="paint0_linear_214_7329" x1="104.137" y1="9.94014" x2="84" y2="9.94014" gradientUnits="userSpaceOnUse">
<stop stop-color="white" stop-opacity="0.01"/>
<stop offset="1" stop-color="#CCCCCC"/>
</linearGradient>
<linearGradient id="paint1_linear_214_7329" x1="-1.13727" y1="9.94014" x2="19" y2="9.94014" gradientUnits="userSpaceOnUse">
<stop stop-color="white" stop-opacity="0.01"/>
<stop offset="1" stop-color="#CCCCCC"/>
</linearGradient>
<clipPath id="clip0_214_7329">
<rect width="103" height="20" fill="white"/>
</clipPath>
</defs>
</svg>
