<svg width="37" height="37" viewBox="0 0 37 37" fill="none" xmlns="http://www.w3.org/2000/svg">
<path d="M18.5 0C28.7173 0 37 8.28273 37 18.5C37 28.7173 28.7173 37 18.5 37C8.28273 37 0 28.7173 0 18.5C0 8.28273 8.28273 0 18.5 0ZM18.5 5C11.0442 5 5 11.0442 5 18.5C5 25.9558 11.0442 32 18.5 32C25.9558 32 32 25.9558 32 18.5C32 11.0442 25.9558 5 18.5 5ZM22.7422 12.9287C23.328 12.3429 24.2785 12.3429 24.8643 12.9287L25.5713 13.6357C26.1571 14.2215 26.1571 15.172 25.5713 15.7578L18.8037 22.5234C18.7403 22.6318 18.6642 22.7352 18.5713 22.8281L17.8643 23.5352C17.5623 23.8372 17.1633 23.982 16.7676 23.9727C16.372 23.9819 15.9738 23.837 15.6719 23.5352L14.9648 22.8281C14.8713 22.7346 14.7932 22.6316 14.7295 22.5225L11.5 19.293C10.9143 18.7072 10.9144 17.7577 11.5 17.1719L12.207 16.4648C12.7928 15.8791 13.7423 15.8791 14.3281 16.4648L16.7676 18.9033L22.7422 12.9287Z" fill="#111111" style="mix-blend-mode:multiply"/>
</svg>
