<svg width="13" height="13" viewBox="0 0 13 13" fill="none" xmlns="http://www.w3.org/2000/svg">
<path fill-rule="evenodd" clip-rule="evenodd" d="M6.49882 1.08295C7.84476 1.08295 9.06328 1.6285 9.94531 2.51053C10.8273 3.39256 11.3729 4.61108 11.3729 5.95702C11.3729 7.56249 10.0672 9.50431 7.61066 11.8229C7.29864 12.1179 6.89875 12.2655 6.4987 12.2657C6.09823 12.2659 5.69763 12.1185 5.38539 11.8245C2.93044 9.50451 1.62476 7.56256 1.62476 5.95702C1.62476 4.61108 2.1703 3.39256 3.05234 2.51053C3.93437 1.6285 5.15289 1.08295 6.49882 1.08295Z" fill="white" stroke="#C5C5C5" stroke-width="1.08331"/>
<path d="M6.49886 7.58307C7.39617 7.58307 8.12358 6.85566 8.12358 5.95835C8.12358 5.06104 7.39617 4.33363 6.49886 4.33363C5.60156 4.33363 4.87415 5.06104 4.87415 5.95835C4.87415 6.85566 5.60156 7.58307 6.49886 7.58307Z" fill="#C5C5C5"/>
</svg>
