<svg width="18" height="18" viewBox="0 0 18 18" fill="none" xmlns="http://www.w3.org/2000/svg">
<path fill-rule="evenodd" clip-rule="evenodd" d="M11.8125 1.825C12.8618 1.825 13.8118 2.25033 14.4995 2.93799C15.1871 3.62566 15.6125 4.57566 15.6125 5.625V12.375C15.6125 13.4243 15.1871 14.3743 14.4995 15.062C13.8118 15.7497 12.8618 16.175 11.8125 16.175H6.18745C5.13811 16.175 4.18811 15.7497 3.50045 15.062C2.81278 14.3743 2.38745 13.4243 2.38745 12.375V5.625C2.38745 4.57566 2.81278 3.62566 3.50045 2.93799C4.18811 2.25033 5.13811 1.825 6.18745 1.825H11.8125Z" stroke="#111111" stroke-width="1.4"/>
<path d="M11.25 6.1875H6.75C6.43934 6.1875 6.1875 6.43934 6.1875 6.75V7.025C6.1875 7.33566 6.43934 7.5875 6.75 7.5875H11.25C11.5607 7.5875 11.8125 7.33566 11.8125 7.025V6.75C11.8125 6.43934 11.5607 6.1875 11.25 6.1875Z" fill="#111111"/>
<path d="M9 10.125H6.75C6.43934 10.125 6.1875 10.3768 6.1875 10.6875V10.9625C6.1875 11.2732 6.43934 11.525 6.75 11.525H9C9.31066 11.525 9.5625 11.2732 9.5625 10.9625V10.6875C9.5625 10.3768 9.31066 10.125 9 10.125Z" fill="#111111"/>
</svg>
